<svg xmlns="http://www.w3.org/2000/svg" width="750" height="500"><style>.a{fill:#ad1519;}.b{fill:none;stroke-linejoin:round;stroke-width:0.3;stroke:#000;}.c{fill:#c8b100;}.d{fill:none;stroke-width:0.3;stroke:#000;}.e{fill:#fff;}.f{fill:#058e6e;}.g{fill:none;stroke-width:0.4;stroke:#000;}.h{fill:none;stroke-linejoin:round;stroke-width:0.4;stroke:#000;}.i{fill:#005bbf;}.j{fill:#ccc;}.k{fill:none;stroke-width:0.2;stroke:#000;}.l{fill:none;stroke-width:0.05;stroke:#000;}.m{fill:#c8b100;stroke-width:0.4;stroke:#000;}.n{fill:none;stroke-width:0.09;stroke:#000;}.o{fill:none;stroke-width:0.1;stroke:#000;}.p{fill:none;stroke-width:0.5;stroke:#000;}.q{fill:none;stroke-width:0.6;stroke:#000;}.r{fill:none;stroke-width:0.7;stroke:#000;}.s{fill:#fff;stroke-width:0.4;stroke:#000;}.t{fill:#ad1519;stroke-width:0.4;stroke:#000;}.u{fill:#058e6e;stroke-width:0.4;stroke:#000;}.v{fill:#c8b100;stroke-width:0.5;stroke:#000;}.w{fill:none;stroke-width:0.3;stroke:#c8b100;}.x{fill:#db4446;}.y{fill:#058e6e;stroke-width:0.5;stroke:#000;}.z{fill:#0039f0;}.A{fill:none;stroke-width:0.02;stroke:#000;}.B{fill:none;stroke-width:0.03;stroke:#000;}.C{fill:none;stroke-width:0.04;stroke:#000;}.D{fill:none;stroke-width:0.06;stroke:#000;}.E{fill:none;stroke-width:0.07;stroke:#000;}.F{fill:none;stroke-width:0.08;stroke:#000;}.G{fill:none;stroke-width:0.01;stroke:#000;}</style><rect width="750" height="500" fill="#c60b1e"/><rect y="125" width="750" height="250" fill="#ffc400"/><path d="m168 222s0 0-1 0-1-1-1-1l-1 0-1-1s-1-1 0-2c0-1 1-1 1-1 1 0 2-1 2-1s1 0 1 0c0 0 1 0 1 0s0 0 1 0c0 0 1 0 1 0 0 0 1 0 1 0 1 0 1 0 2 0s1 0 2 0c0 0 2 0 2 0 0 0 1 0 1 0 1 0 1 0 2 0s2 1 2 1 2 0 2 1c1 0 1 1 1 1 0 0 0 1 1 1 0 0 0 1 0 1 0 0 0 1 0 1l-1 1-1 1s-1 1-1 1c0 0-5-1-8-1s-8 1-8 1M168 222 168 222 168 222s0 0-1 0-1-1-1-1l-1 0-1-1s-1-1 0-2c0-1 1-1 1-1 1 0 2-1 2-1s1 0 1 0c0 0 1 0 1 0s0 0 1 0c0 0 1 0 1 0 0 0 1 0 1 0 1 0 1 0 2 0s1 0 2 0c0 0 2 0 2 0 0 0 1 0 1 0 1 0 1 0 2 0s2 1 2 1 2 0 2 1c1 0 1 1 1 1 0 0 0 1 1 1 0 0 0 1 0 1 0 0 0 1 0 1l-1 1-1 1s-1 1-1 1c0 0-5-1-8-1s-8 1-8 1h0zM174 216c0-1 1-2 1-2s1 1 1 3-1 3-1 3-1-1-1-2M174 216c0-1 1-2 1-2s1 1 1 3-1 3-1 3-1-1-1-2zM175 216c0-1 0-2 1-2 0 0 1 1 1 2 0 1 0 2-1 2 0 0-1-1-1-2M175 216c0-1 0-2 1-2 0 0 1 1 1 2 0 1 0 2-1 2 0 0-1-1-1-2zM175 213c0 0 0-1 1-1 1 0 1 0 1 1 0 1 0 1-1 1 0 0-1 0-1-1M176 213v1h-1v-1h1v-1h-1v-1h1v-1h1v1h1v1h-1v1h0M176 213v1h-1v-1h1v-1h-1v-1h1v-1h1v1h1v1h-1v1h0M177 213v1h-2v-1h1v-1h-1v-1h1v-1h1v1h1v1h-1v1h1M177 213v1h-2v-1h1v-1h-1v-1h1v-1h1v1h1v1h-1v1h1M176 212c0 0 1 1 1 1 0 1 0 1-1 1 0 0-1 0-1-1 0 0 0-1 1-1M176 222h-5l0-1 0-1 0-1c-1-2-2-3-3-3 0 0 0-1 1-1 1-1 4 1 5 4 0 0 0 1 1 1h4c0 0 0 0 1-1 2-3 4-4 5-4 0 0 0 0 1 1 0 0-2 1-3 3l0 2 0 1 0 1h-5M176 222h-5l0-1 0-1 0-1c-1-2-2-3-3-3 0 0 0-1 1-1 1-1 4 1 5 4 0 0 0 1 1 1h4c0 0 0 0 1-1 2-3 4-4 5-4 0 0 0 0 1 1 0 0-2 1-3 3l0 2 0 1 0 1h-5zM168 215c1 0 3 1 5 4m12-4c-1 0-3 1-5 4M169 224c0-1-1-1-1-1 2-1 5-1 8-1 3 0 6 0 8 1 0 0 0 0 0 1 0 0 0 1 0 1-2 0-4-1-7-1-3 0-5 0-7 1 0 0 0 0 0-1h0M169 224c0-1-1-1-1-1 2-1 5-1 8-1 3 0 6 0 8 1 0 0 0 0 0 1 0 0 0 1 0 1-2 0-4-1-7-1-3 0-5 0-7 1 0 0 0 0 0-1h0M176 227c2 0 5 0 6-1 1 0 1 0 1-1 0 0 0 0 0 0-1 0-4-1-7-1-3 0-5 0-7 1 0 0 0 0 0 0 0 0 0 1 1 1 1 0 4 1 6 1M176 227c2 0 5 0 6-1 1 0 1 0 1-1 0 0 0 0 0 0-1 0-4-1-7-1-3 0-5 0-7 1 0 0 0 0 0 0 0 0 0 1 1 1 1 0 4 1 6 1zM184 222l-1 0s-1 0-1 0c-1 0-1-1-1-1s-1 1-1 1c-1 0-1-1-1-1s-1 1-1 1c-1 0-1-1-1-1s-1 1-1 1c-1 0-1 0-1 0s0 1-1 1-1-1-1-1 0 1-1 1c0 0-1 0-1 0s0 0 0 0 0 0 0 0l0 1c2-1 5-1 8-1s6 0 8 1l0 0M184 222l-1 0s-1 0-1 0c-1 0-1-1-1-1s-1 1-1 1c-1 0-1-1-1-1s-1 1-1 1c-1 0-1-1-1-1s-1 1-1 1c-1 0-1 0-1 0s0 1-1 1-1-1-1-1 0 1-1 1c0 0-1 0-1 0s0 0 0 0 0 0 0 0l0 1c2-1 5-1 8-1s6 0 8 1l0 0h0zM176 220l0 0c0 0 0 0 0 0 0 1 1 1 1 1 1 0 1 0 1-1 0 0 0 0 0 0 0 0 0 0 0 0 0 1 1 1 1 1 1 0 1 0 1-1 0 0 0 0 0 0l0 0 0 0c0 0 0 0 0 1 0 1 1 1 1 1 0 0 1 0 1 0l0 0v0c0 0 0 1 1 1 0 0 0 0 1 0 1 0 1-1 1-1l0 0s0 1-1 1c0 0-1 0-1 0 0 0 0 0-1-1 0 0 0 0-1 0-1 0-1 0-1-1 0 0-1 1-1 1 0 0-1 0-1-1 0 0-1 0-1 0 0 0-1 0-1-1 0 0-1 1-1 1 0 0-1 0-1 0 0 0-1 1-1 1 0 0-1 0-1 0 0 1-1 1-1 1 0 0-1 0-1 0 0 0 0 1-1 1 0 0-1 0-1 0 0 0-1-1-1-1l0 0s0 0 1 1 1 0 1 0c0 0 1 0 1-1v0l0 0c0 0 1 1 1 1 1 0 1 0 1-1 0 0 0 0 0 0l0 0 0 0c0 0 0 0 0 0 0 1 1 1 1 1 1 0 1 0 1-1 0 0 0 0 0 0 0 0 0 0 0 0 0 0 1 1 1 1 1 0 1 0 1-1 0 0 0 0 0 0l0 0M176 220l0 0c0 0 0 0 0 0 0 1 1 1 1 1 1 0 1 0 1-1 0 0 0 0 0 0 0 0 0 0 0 0 0 1 1 1 1 1 1 0 1 0 1-1 0 0 0 0 0 0l0 0 0 0c0 0 0 0 0 1 0 1 1 1 1 1 0 0 1 0 1 0l0 0v0c0 0 0 1 1 1 0 0 0 0 1 0 1 0 1-1 1-1l0 0s0 1-1 1c0 0-1 0-1 0 0 0 0 0-1-1 0 0 0 0-1 0-1 0-1 0-1-1 0 0-1 1-1 1 0 0-1 0-1-1 0 0-1 0-1 0 0 0-1 0-1-1 0 0-1 1-1 1 0 0-1 0-1 0 0 0-1 1-1 1 0 0-1 0-1 0 0 1-1 1-1 1 0 0-1 0-1 0 0 0 0 1-1 1 0 0-1 0-1 0 0 0-1-1-1-1l0 0s0 0 1 1 1 0 1 0c0 0 1 0 1-1v0l0 0c0 0 1 1 1 1 1 0 1 0 1-1 0 0 0 0 0 0l0 0 0 0c0 0 0 0 0 0 0 1 1 1 1 1 1 0 1 0 1-1 0 0 0 0 0 0 0 0 0 0 0 0 0 0 1 1 1 1 1 0 1 0 1-1 0 0 0 0 0 0l0 0h0zM176 222c-3 0-6 0-8 1 0 0 0 0 0 0 0 0 0 0 0 0 2-1 5-1 8-1s6 0 8 1c0 0 0 0 0 0 0 0 0 0 0 0-2-1-5-1-8-1M176 222c-3 0-6 0-8 1 0 0 0 0 0 0 0 0 0 0 0 0 2-1 5-1 8-1s6 0 8 1c0 0 0 0 0 0 0 0 0 0 0 0-2-1-5-1-8-1zM173 223c0 0 0 0 0 0s0 0 0 0c0 0 0 0 0 0s0 0 0 0M173 223c0 0 0 0 0 0s0 0 0 0c0 0 0 0 0 0s0 0 0 0zM176 224h-1c0 0 0 0 0 0s0 0 0 0h2c0 0 0 0 0 0s0 0 0 0h-1M176 224h-1c0 0 0 0 0 0s0 0 0 0h2c0 0 0 0 0 0s0 0 0 0h-1M171 224l-1 0c0 0 0 0 0 0 0 0 0 0 0 0l1 0 1 0c0 0 0 0 0 0 0 0 0 0 0 0l-1 0M171 224l-1 0c0 0 0 0 0 0 0 0 0 0 0 0l1 0 1 0c0 0 0 0 0 0 0 0 0 0 0 0l-1 0M168 224l0 0 1 0 0 1-1 0M168 224l0 0 1 0 0 1-1 0M178 223c0 0 0 0 0 0 0 0 0 0 0 0 0 0 0 0 0 0 0 0 0 0 0 0M178 223c0 0 0 0 0 0 0 0 0 0 0 0 0 0 0 0 0 0 0 0 0 0 0 0zM181 224l1 0c0 0 0 0 0 0 0 0 0 0 0 0l-1 0-1 0c0 0 0 0 0 0 0 0 0 0 0 0l1 0M181 224l1 0c0 0 0 0 0 0 0 0 0 0 0 0l-1 0-1 0c0 0 0 0 0 0 0 0 0 0 0 0l1 0M183 224l0 0-1 0 0 1 1 0M183 224l0 0-1 0 0 1 1 0M176 226c-2 0-5 0-6-1 2 0 4-1 6-1 2 0 5 0 6 1-2 0-4 1-6 1M176 226c-2 0-5 0-6-1 2 0 4-1 6-1 2 0 5 0 6 1-2 0-4 1-6 1zM183 221c0 0 0 0 0 0 0 0 0 0 0 0 0 0 0 0 0 0 0 0 0 0 0 0M183 221c0 0 0 0 0 0 0 0 0 0 0 0 0 0 0 0 0 0 0 0 0 0 0 0zM179 220c0 0 0 0 0 0s0 0 0 0c0 0 0 0 0 0 0 0 0 0 0 0M179 220c0 0 0 0 0 0s0 0 0 0c0 0 0 0 0 0 0 0 0 0 0 0zM173 220c0 0 0 0 0 0s0 0 0 0c0 0 0 0 0 0 0 0 0 0 0 0M173 220c0 0 0 0 0 0s0 0 0 0c0 0 0 0 0 0 0 0 0 0 0 0zM168 221c0 0 0 0 0 0 0 0 0 0 0 0 0 0 0 0 0 0 0 0 0 0 0 0M168 221c0 0 0 0 0 0 0 0 0 0 0 0 0 0 0 0 0 0 0 0 0 0 0 0zM176 217l-1 1 1 1 0 0 0 0 1-1-1 0M176 217l-1 1 1 1 0 0 0 0 1-1-1 0M174 219l0 1 1 0 0 0 0 0-1 0 0 1M174 219l0 1 1 0 0 0 0 0-1 0 0 1M178 219l0 1-1 0 0 0 0 0 1 0 0 1M178 219l0 1-1 0 0 0 0 0 1 0 0 1M170 218l-1 1 1 1 0 0 0 0 0-1-1 0M170 218l-1 1 1 1 0 0 0 0 0-1-1 0M169 220l1 1 1-1 0 0 0 0-1 0 0 1M169 220l1 1 1-1 0 0 0 0-1 0 0 1M172 219l0 1-1 0 0 0 0 0 1-1 1 1M172 219l0 1-1 0 0 0 0 0 1-1 1 1M167 220l0 1-1 0 0 0 0 0 1-1 1 0M167 220l0 1-1 0 0 0 0 0 1-1 1 0M170 220c0 0 0 0 1 0s1 0 1 1c0 0 0 1 0 1s0 0 0 0M170 220c0 0 0 0 1 0s1 0 1 1c0 0 0 1 0 1s0 0 0 0zM181 218l1 1-1 1 0 0 0 0 0-1 1 0M181 218l1 1-1 1 0 0 0 0 0-1 1 0M183 220l0 1-1-1 0 0 0 0 1 0 0 1M183 220l0 1-1-1 0 0 0 0 1 0 0 1M179 219l0 1 1 0 0 0 0 0-1-1 0 1M179 219l0 1 1 0 0 0 0 0-1-1 0 1M184 220l0 1 1 0 0 0 0 0-1-1-1 0M184 220l0 1 1 0 0 0 0 0-1-1-1 0M175 219c0 0 0 0 1 0s1 0 1 1c0 0 0 1 0 1s0 0 0 0M175 219c0 0 0 0 1 0s1 0 1 1c0 0 0 1 0 1s0 0 0 0zM180 220c0 0 0 0 1 0s1 0 1 1c0 0 0 1 0 1s0 0 0 0M180 220c0 0 0 0 1 0s1 0 1 1c0 0 0 1 0 1s0 0 0 0zM165 221c0 0 0 0-1-1 0 0-1 0-1 0 0 0 0 0 1 0 0 0 0 0 1 0l0 0s0 0 0 0c0 0 0 1 0 1s0 0 0 0M165 221c0 0 0 0-1-1 0 0-1 0-1 0 0 0 0 0 1 0 0 0 0 0 1 0l0 0s0 0 0 0c0 0 0 1 0 1s0 0 0 0zM166 221c0 0 0 0 1 0 0 0 0 0 0 1 0 0 0 0 0 0 0 0 0 0 0 0M166 221c0 0 0 0 1 0 0 0 0 0 0 1 0 0 0 0 0 0 0 0 0 0 0 0zM186 221c0 0 0 0 1-1 0 0 1 0 1 0 0 0 0 0-1 0 0 0 0 0 0 0l0 0s0 0 0 0c0 0 0 1 0 1s0 0 0 0M186 221c0 0 0 0 1-1 0 0 1 0 1 0 0 0 0 0-1 0 0 0 0 0 0 0l0 0s0 0 0 0c0 0 0 1 0 1s0 0 0 0zM186 221c0 0 0 0 0 0s0 0 0 1c0 0 0 0 1 0 0 0 0 0 0 0M186 221c0 0 0 0 0 0s0 0 0 1c0 0 0 0 1 0 0 0 0 0 0 0zM165 232h22v-6h-22v6zM165 232h22v-6h-22v6zM167 236c0 0 0 0 0 0h17c0 0 0 0 1 0-1 0-1-1-1-1s1-1 1-1c0 0 0 0 0 0h-17c0 0 0 0 0 0l0 0c1 0 1 1 1 1 0 1 0 1-1 1M167 236c0 0 0 0 0 0h17c0 0 0 0 1 0-1 0-1-1-1-1s1-1 1-1c0 0 0 0 0 0h-17c0 0 0 0 0 0l0 0c1 0 1 1 1 1 0 1 0 1-1 1zM167 236h17c1 0 1 0 1 1 0 0 0 1-1 1h-17c-1 0-1 0-1-1 0 0 1-1 1-1M167 236h17c1 0 1 0 1 1 0 0 0 1-1 1h-17c-1 0-1 0-1-1 0 0 1-1 1-1zM167 232h17c1 0 1 0 1 1 0 0 0 1-1 1h-17c-1 0-1 0-1-1 0 0 1-1 1-1M167 232h17c1 0 1 0 1 1 0 0 0 1-1 1h-17c-1 0-1 0-1-1 0 0 1-1 1-1zM191 331c-1 0-3 0-4-1-1 0-2-1-4-1-1 0-3 0-4 1-1 1-2 1-4 1-1 0-3 0-4-1-1 0-2-1-4-1-1 0-3 0-4 1-1 1-2 1-4 1v2c2 0 3 0 4-1 1 0 2-1 4-1 2 0 3 0 4 1 1 1 2 1 4 1 2 0 3 0 4-1 1 0 2-1 4-1 2 0 3 0 4 1 1 1 2 1 4 1l0-2M191 331c-1 0-3 0-4-1-1 0-2-1-4-1-1 0-3 0-4 1-1 1-2 1-4 1-1 0-3 0-4-1-1 0-2-1-4-1-1 0-3 0-4 1-1 1-2 1-4 1v2c2 0 3 0 4-1 1 0 2-1 4-1 2 0 3 0 4 1 1 1 2 1 4 1 2 0 3 0 4-1 1 0 2-1 4-1 2 0 3 0 4 1 1 1 2 1 4 1l0-2zM191 333c-1 0-3 0-4-1-1 0-2-1-4-1-1 0-3 0-4 1-1 1-2 1-4 1-1 0-3 0-4-1-1 0-2-1-4-1-1 0-3 0-4 1-1 1-2 1-4 1v2c2 0 3 0 4-1 1 0 2-1 4-1 2 0 3 0 4 1 1 1 2 1 4 1 2 0 3 0 4-1s2-1 4-1c2 0 3 0 4 1 1 1 2 1 4 1l0-2M191 333c-1 0-3 0-4-1-1 0-2-1-4-1-1 0-3 0-4 1-1 1-2 1-4 1-1 0-3 0-4-1-1 0-2-1-4-1-1 0-3 0-4 1-1 1-2 1-4 1v2c2 0 3 0 4-1 1 0 2-1 4-1 2 0 3 0 4 1 1 1 2 1 4 1 2 0 3 0 4-1s2-1 4-1c2 0 3 0 4 1 1 1 2 1 4 1l0-2M191 336c-1 0-3 0-4-1-1 0-2-1-4-1-1 0-3 0-4 1s-2 1-4 1c-1 0-3 0-4-1-1 0-2-1-4-1-1 0-3 0-4 1-1 1-2 1-4 1v2c2 0 3 0 4-1 1 0 2-1 4-1 2 0 3 0 4 1 1 1 2 1 4 1 2 0 3 0 4-1 1 0 2-1 4-1 2 0 3 0 4 1 1 1 2 1 4 1l0-2M191 336c-1 0-3 0-4-1-1 0-2-1-4-1-1 0-3 0-4 1s-2 1-4 1c-1 0-3 0-4-1-1 0-2-1-4-1-1 0-3 0-4 1-1 1-2 1-4 1v2c2 0 3 0 4-1 1 0 2-1 4-1 2 0 3 0 4 1 1 1 2 1 4 1 2 0 3 0 4-1 1 0 2-1 4-1 2 0 3 0 4 1 1 1 2 1 4 1l0-2M191 340c-1 0-3 0-4-1-1 0-2-1-4-1-1 0-3 0-4 1s-2 1-4 1c-1 0-3 0-4-1-1 0-2-1-4-1-1 0-3 0-4 1-1 1-2 1-4 1v-2c2 0 3 0 4-1 1 0 2-1 4-1 2 0 3 0 4 1 1 1 2 1 4 1 2 0 3 0 4-1 1 0 2-1 4-1 2 0 3 0 4 1 1 1 2 1 4 1l0 2M191 340c-1 0-3 0-4-1-1 0-2-1-4-1-1 0-3 0-4 1s-2 1-4 1c-1 0-3 0-4-1-1 0-2-1-4-1-1 0-3 0-4 1-1 1-2 1-4 1v-2c2 0 3 0 4-1 1 0 2-1 4-1 2 0 3 0 4 1 1 1 2 1 4 1 2 0 3 0 4-1 1 0 2-1 4-1 2 0 3 0 4 1 1 1 2 1 4 1l0 2M191 343c-1 0-3 0-4-1-1 0-2-1-4-1-1 0-3 0-4 1s-2 1-4 1c-1 0-3 0-4-1-1 0-2-1-4-1-1 0-3 0-4 1-1 1-2 1-4 1v-2c2 0 3 0 4-1 1 0 2-1 4-1 2 0 3 0 4 1 1 1 2 1 4 1 2 0 3 0 4-1s2-1 4-1c2 0 3 0 4 1 1 1 2 1 4 1l0 2M191 343c-1 0-3 0-4-1-1 0-2-1-4-1-1 0-3 0-4 1s-2 1-4 1c-1 0-3 0-4-1-1 0-2-1-4-1-1 0-3 0-4 1-1 1-2 1-4 1v-2c2 0 3 0 4-1 1 0 2-1 4-1 2 0 3 0 4 1 1 1 2 1 4 1 2 0 3 0 4-1s2-1 4-1c2 0 3 0 4 1 1 1 2 1 4 1l0 2zM167 321c0 0 0 0 0 1 0 2-1 3-3 3h23c-1 0-3-1-3-3 0 0 0 0 0-1 0 0 0 0 0 0h-17c0 0 0 0 0 0M167 321c0 0 0 0 0 1 0 2-1 3-3 3h23c-1 0-3-1-3-3 0 0 0 0 0-1 0 0 0 0 0 0h-17c0 0 0 0 0 0zM167 319h17c1 0 1 0 1 1s0 1-1 1h-17c-1 0-1 0-1-1s1-1 1-1M167 319h17c1 0 1 0 1 1s0 1-1 1h-17c-1 0-1 0-1-1s1-1 1-1zM164 330h23v-6h-23v6zM164 330h23v-6h-23v6zM163 299c-2 1-4 3-3 3 0 1 1 1 2 2 2 1 3 3 2 4 1-1 2-3 2-4 0-2-1-4-2-5M163 299c-2 1-4 3-3 3 0 1 1 1 2 2 2 1 3 3 2 4 1-1 2-3 2-4 0-2-1-4-2-5zM168 318h16v-80h-16v80zM179 239v80m2-79v80M168 318h16v-80h-16v80zM200 269c-3-1-10-2-16-3-2 0-5 0-8 1-10 2-17 6-16 9 0 0 0 0 0 0 0 0-4-8-4-8-1-3 8-8 18-10 3-1 7-1 10-1 7 0 13 1 17 2l0 10M200 269c-3-1-10-2-16-3-2 0-5 0-8 1-10 2-17 6-16 9 0 0 0 0 0 0 0 0-4-8-4-8-1-3 8-8 18-10 3-1 7-1 10-1 7 0 13 1 17 2l0 10M168 279c-4 0-8-1-8-3 0-1 1-3 4-5 1 0 3 0 4 0l0 8M168 279c-4 0-8-1-8-3 0-1 1-3 4-5 1 0 3 0 4 0l0 8M184 272c3 0 5 1 6 2l0 0c1 1-2 3-6 6l0-8M184 272c3 0 5 1 6 2l0 0c1 1-2 3-6 6l0-8M157 294c0-1 4-4 10-6 3-1 5-2 8-3 9-4 15-8 14-10l0 0c1 0 1 8 1 8 1 2-5 6-13 10-2 1-8 3-10 4-4 2-9 5-9 6l-1-8M157 294c0-1 4-4 10-6 3-1 5-2 8-3 9-4 15-8 14-10l0 0c1 0 1 8 1 8 1 2-5 6-13 10-2 1-8 3-10 4-4 2-9 5-9 6l-1-8v0zM166 265c2-1 3-2 3-3 0-1-1-1-3-1l-3 1 2 6c0 0 1 0 1 0 0 0 1 0 1 0l-1-3v0zm-1-3l1 0c1 0 1 0 2 1 0 1 0 1 0 2 0 0 0 0-1 0l-1-2M173 259c0 0-1 0-1 0 0 0-1 0-1 0l1 6 4-1c0 0 0 0 0 0 0 0 0 0 0 0-1 0-2 1-3 1l-1-6M182 265c1-2 2-4 3-7 0 0 0 0 0 0s0 0 0 0c0 2-1 3-2 5-1-1-2-3-2-4 0 0-1 0-1 0 0 0-1 0-1 0 1 2 3 4 4 6 0 0 0 0 1 0 0 0 0 0 1 0M191 260c0 0 0-1 1-1 0 0-1 0-2-1-2 0-3 1-3 2 0 2 3 2 3 4 0 1-1 1-1 1-1 0-1 0-1-1l0 0c0 0 0 1 0 1 1 0 1 1 2 1 2 0 3 0 3-2 0-2-3-2-3-3 0 0 1-1 1-1 1 0 1 0 1 1l0 0M325 220s-1 1-1 1c0 0-1 0-1 0s0 1-1 1c-1 0-1-1-1-1s-1 1-1 1c0 0-1 0-1 0s0 0-1 1c0 0 0 0 0 0l-1 0-1-1-1 0s0-1 0-1c0 0 0-1 0-1 0-1 1-1 2-2 1 0 2 0 2 0 1 0 2-1 3-1 1 0 2 0 3 1 1 0 2-1 3-1 1 0 3 0 3 1 1 0 1 0 2 0 1 0 2 1 2 2 0 0 0 0 0 1 0 0 0 1 0 1l-1 0-1 1-1 0s0 0 0 0c0 0-1-1-1-1s-1 0-1 0c0 0-1-1-1-1s-1 1-1 1c-1 0-1-1-1-1s-1 1-1 1c0 0-1-1-1-1M325 220s-1 1-1 1c0 0-1 0-1 0s0 1-1 1c-1 0-1-1-1-1s-1 1-1 1c0 0-1 0-1 0s0 0-1 1c0 0 0 0 0 0l-1 0-1-1-1 0s0-1 0-1c0 0 0-1 0-1 0-1 1-1 2-2 1 0 2 0 2 0 1 0 2-1 3-1 1 0 2 0 3 1 1 0 2-1 3-1 1 0 3 0 3 1 1 0 1 0 2 0 1 0 2 1 2 2 0 0 0 0 0 1 0 0 0 1 0 1l-1 0-1 1-1 0s0 0 0 0c0 0-1-1-1-1s-1 0-1 0c0 0-1-1-1-1s-1 1-1 1c-1 0-1-1-1-1s-1 1-1 1c0 0-1-1-1-1zM324 216c0-1 1-2 1-2s1 1 1 2c0 1-1 2-1 2s-1-1-1-2M324 216c0-1 1-2 1-2s1 1 1 2c0 1-1 2-1 2s-1-1-1-2zM324 216c0-1 0-2 1-2s1 1 1 2 0 2-1 2-1-1-1-2M324 216c0-1 0-2 1-2s1 1 1 2 0 2-1 2-1-1-1-2zM318 224c0-1-1-1-1-1 2-1 5-1 8-1 3 0 6 0 8 1 0 0 0 0 0 1 0 0 0 1 0 1-2 0-4-1-7-1-3 0-5 0-7 1 0 0 0 0 0-1h0M318 224c0-1-1-1-1-1 2-1 5-1 8-1 3 0 6 0 8 1 0 0 0 0 0 1 0 0 0 1 0 1-2 0-4-1-7-1-3 0-5 0-7 1 0 0 0 0 0-1h0M325 227c2 0 5 0 6-1 1 0 1 0 1-1 0 0 0 0 0 0-1 0-4-1-7-1s-5 0-7 1c0 0 0 0 0 0 0 0 0 1 1 1 1 0 4 1 6 1M325 227c2 0 5 0 6-1 1 0 1 0 1-1 0 0 0 0 0 0-1 0-4-1-7-1s-5 0-7 1c0 0 0 0 0 0 0 0 0 1 1 1 1 0 4 1 6 1zM331 217c0 0 0 0 0 0 0 0 1 0 1 0 0 0 0 0 0 0 0 0 0 0 0 0M331 217c0 0 0 0 0 0 0 0 1 0 1 0 0 0 0 0 0 0 0 0 0 0 0 0zM331 216c0 0 0 0 1 0s1 0 1 0c0 0 0 0 0 0s0 0 0 0zm-1-1c0 0 0 0 1 0s1 0 1 0 0 0 0 0 0 0 0 0zm-1 0c0 0 0 0 1 0s1 0 1 0c0 0 0 0 0 0s0 0 0 0zm-1 0c0 0 0 0 0 0 0 0 1 0 1 0s0 0 0 0c0 0 0 0 0 0zM335 220c0 0 0-1 0-1 0-2-1-3-3-3 0 0-1 0-1 0M330 218c0 0 0-1 0-1 0-1-1-2-3-2-1 0-1 0-2 1M336 219c0 0 0 0 1 0s1 0 1 0 0 0 0 0 0 0 0 0zm0-2c0 0 0 0 1 0s1 0 1 0 0 0 0 0 0 0 0 0zm-1-1c0 0 0 0 1 0s1 0 1 0c0 0 0 0 0 0s0 0 0 0zm-1-1c0 0 0 0 1 0s1 0 1 0c0 0 0 0 0 0s0 0 0 0zm-1 0c0 0 0 0 1 0s1 0 1 0c0 0 0 0 0 0s0 0 0 0zM333 222l-1 0s-1 0-1 0c-1 0-1-1-1-1s-1 1-1 1c-1 0-1-1-1-1s-1 1-1 1c-1 0-1-1-1-1s-1 1-1 1c-1 0-1 0-1 0s0 1-1 1-1-1-1-1 0 1-1 1c0 0-1 0-1 0s0 0 0 0c0 0 0 0 0 0l0 1c2-1 5-1 8-1s6 0 8 1l0 0M333 222l-1 0s-1 0-1 0c-1 0-1-1-1-1s-1 1-1 1c-1 0-1-1-1-1s-1 1-1 1c-1 0-1-1-1-1s-1 1-1 1c-1 0-1 0-1 0s0 1-1 1-1-1-1-1 0 1-1 1c0 0-1 0-1 0s0 0 0 0c0 0 0 0 0 0l0 1c2-1 5-1 8-1s6 0 8 1l0 0zM318 217c0 0 0 0 1 0s1 0 1 0c0 0 0 0 0 0s0 0 0 0M318 217c0 0 0 0 1 0s1 0 1 0c0 0 0 0 0 0s0 0 0 0zM318 216c0 0 0 0 1 0s1 0 1 0c0 0 0 0 0 0s0 0 0 0zm1-1c0 0 0 0 1 0s1 0 1 0 0 0 0 0 0 0 0 0zm1 0c0 0 0 0 1 0s1 0 1 0c0 0 0 0 0 0s0 0 0 0zm2 0c0 0 0 0 1 0s1 0 1 0 0 0 0 0 0 0 0 0zM314 220c0 0 0-1 0-1 0-2 1-3 3-3 1 0 1 0 1 0M320 218c0 0 0 0 0-1 0-1 1-2 3-2 1 0 1 0 2 1M313 219c0 0 0 0 1 0 0 0 1 0 1 0s0 0 0 0c0 0 0 0 0 0zm0-2c0 0 0 0 1 0s1 0 1 0 0 0 0 0 0 0 0 0zm1-1c0 0 0 0 1 0 0 0 1 0 1 0 0 0 0 0 0 0 0 0 0 0 0 0zm1-1c0 0 0 0 1 0s1 0 1 0c0 0 0 0 0 0s0 0 0 0zm1 0c0 0 0 0 1 0s1 0 1 0c0 0 0 0 0 0s0 0 0 0zM325 220l0 0c0 0 0 0 0 0 0 1 1 1 1 1 1 0 1 0 1-1 0 0 0 0 0 0 0 0 0 0 0 0 0 1 1 1 1 1 1 0 1 0 1-1 0 0 0 0 0 0l0 0 0 0c0 0 0 0 0 1 0 1 1 1 1 1 0 0 1 0 1 0l0 0 0 0c0 0 0 1 1 1 0 0 0 0 1 0 1 0 1-1 1-1l0 0s0 1-1 1c0 0-1 0-1 0 0 0 0 0-1-1 0 0 0 0-1 0-1 0-1 0-1-1 0 0-1 1-1 1 0 0-1 0-1-1 0 0-1 0-1 0-1 0-1 0-1-1 0 0-1 1-1 1 0 0-1 0-1 0 0 0-1 1-1 1 0 0-1 0-1 0 0 1-1 1-1 1 0 0-1 0-1 0 0 0 0 1-1 1 0 0-1 0-1 0 0 0-1-1-1-1l0 0s0 0 1 1 1 0 1 0c0 0 1 0 1-1v0l0 0c0 0 1 1 1 1 1 0 1 0 1-1 0 0 0 0 0 0l0 0 0 0c0 0 0 0 0 0 0 1 1 1 1 1 1 0 1 0 1-1 0 0 0 0 0 0 0 0 0 0 0 0 0 0 1 1 1 1 1 0 1 0 1-1 0 0 0 0 0 0l0 0M325 220l0 0c0 0 0 0 0 0 0 1 1 1 1 1 1 0 1 0 1-1 0 0 0 0 0 0 0 0 0 0 0 0 0 1 1 1 1 1 1 0 1 0 1-1 0 0 0 0 0 0l0 0 0 0c0 0 0 0 0 1 0 1 1 1 1 1 0 0 1 0 1 0l0 0 0 0c0 0 0 1 1 1 0 0 0 0 1 0 1 0 1-1 1-1l0 0s0 1-1 1c0 0-1 0-1 0 0 0 0 0-1-1 0 0 0 0-1 0-1 0-1 0-1-1 0 0-1 1-1 1 0 0-1 0-1-1 0 0-1 0-1 0-1 0-1 0-1-1 0 0-1 1-1 1 0 0-1 0-1 0 0 0-1 1-1 1 0 0-1 0-1 0 0 1-1 1-1 1 0 0-1 0-1 0 0 0 0 1-1 1 0 0-1 0-1 0 0 0-1-1-1-1l0 0s0 0 1 1 1 0 1 0c0 0 1 0 1-1v0l0 0c0 0 1 1 1 1 1 0 1 0 1-1 0 0 0 0 0 0l0 0 0 0c0 0 0 0 0 0 0 1 1 1 1 1 1 0 1 0 1-1 0 0 0 0 0 0 0 0 0 0 0 0 0 0 1 1 1 1 1 0 1 0 1-1 0 0 0 0 0 0l0 0zM325 222c-3 0-6 0-8 1 0 0 0 0 0 0 0 0 0 0 0 0 2-1 5-1 8-1 3 0 6 0 8 1 0 0 0 0 0 0 0 0 0 0 0 0-2-1-5-1-8-1M325 222c-3 0-6 0-8 1 0 0 0 0 0 0 0 0 0 0 0 0 2-1 5-1 8-1 3 0 6 0 8 1 0 0 0 0 0 0 0 0 0 0 0 0-2-1-5-1-8-1zM322 223c0 0 0 0 0 0s0 0 0 0c0 0 0 0 0 0s0 0 0 0M322 223c0 0 0 0 0 0s0 0 0 0c0 0 0 0 0 0s0 0 0 0zM325 224h-1c0 0 0 0 0 0s0 0 0 0h2c0 0 0 0 0 0s0 0 0 0h-1M325 224h-1c0 0 0 0 0 0s0 0 0 0h2c0 0 0 0 0 0s0 0 0 0h-1M320 224l-1 0c0 0 0 0 0 0s0 0 0 0l1 0 1 0c0 0 0 0 0 0 0 0 0 0 0 0l-1 0M320 224l-1 0c0 0 0 0 0 0s0 0 0 0l1 0 1 0c0 0 0 0 0 0 0 0 0 0 0 0l-1 0M317 224l0 0 1 0 0 1-1 0M317 224l0 0 1 0 0 1-1 0M327 223c0 0 0 0 0 0s0 0 0 0c0 0 0 0 0 0s0 0 0 0M327 223c0 0 0 0 0 0s0 0 0 0c0 0 0 0 0 0s0 0 0 0zM330 224l1 0c0 0 0 0 0 0s0 0 0 0l-1 0-1 0c0 0 0 0 0 0 0 0 0 0 0 0l1 0M330 224l1 0c0 0 0 0 0 0s0 0 0 0l-1 0-1 0c0 0 0 0 0 0 0 0 0 0 0 0l1 0M332 224l0 0-1 0 0 1 1 0M332 224l0 0-1 0 0 1 1 0M325 226c-2 0-5 0-6-1 2 0 4-1 6-1 2 0 5 0 6 1-2 0-4 1-6 1M325 226c-2 0-5 0-6-1 2 0 4-1 6-1 2 0 5 0 6 1-2 0-4 1-6 1zM333 221c0 0 0 0 0 0 0 0 0 0 0 0 0 0 0 0 0 0 0 0 0 0 0 0M333 221c0 0 0 0 0 0 0 0 0 0 0 0 0 0 0 0 0 0 0 0 0 0 0 0zM328 220c0 0 0 0 0 0s0 0 0 0c0 0 0 0 0 0 0 0 0 0 0 0M328 220c0 0 0 0 0 0s0 0 0 0c0 0 0 0 0 0 0 0 0 0 0 0zM322 220c0 0 0 0 0 0 0 0 0 0 0 0 0 0 0 0 0 0 0 0 0 0 0 0M322 220c0 0 0 0 0 0 0 0 0 0 0 0 0 0 0 0 0 0 0 0 0 0 0 0zM317 221c0 0 0 0 0 0 0 0 0 0 0 0 0 0 0 0 0 0 0 0 0 0 0 0M317 221c0 0 0 0 0 0 0 0 0 0 0 0 0 0 0 0 0 0 0 0 0 0 0 0zM325 217l-1 1 1 1 0 0 0 0 1-1-1 0M325 217l-1 1 1 1 0 0 0 0 1-1-1 0M323 219l0 1 1 0 0 0 0 0-1 0 0 1M323 219l0 1 1 0 0 0 0 0-1 0 0 1M327 219l0 1-1 0 0 0 0 0 1 0 0 1M327 219l0 1-1 0 0 0 0 0 1 0 0 1M319 218l-1 1 1 1 0 0 0 0 0-1-1 0M319 218l-1 1 1 1 0 0 0 0 0-1-1 0M318 220l1 1 1-1 0 0 0 0-1 0 0 1M318 220l1 1 1-1 0 0 0 0-1 0 0 1M322 219l0 1-1 0 0 0 0 0 1-1 1 1M322 219l0 1-1 0 0 0 0 0 1-1 1 1M317 220l0 1-1 0 0 0 0 0 1-1 1 0M317 220l0 1-1 0 0 0 0 0 1-1 1 0M319 220c0 0 0 0 1 0s1 0 1 1c0 0 0 1 0 1s0 0 0 0M319 220c0 0 0 0 1 0s1 0 1 1c0 0 0 1 0 1s0 0 0 0zM330 218l1 1-1 1 0 0 0 0 0-1 1 0M330 218l1 1-1 1 0 0 0 0 0-1 1 0M332 220l0 1-1-1 0 0 0 0 1 0 0 1M332 220l0 1-1-1 0 0 0 0 1 0 0 1M328 219l0 1 1 0 0 0 0 0-1-1 0 1M328 219l0 1 1 0 0 0 0 0-1-1 0 1M333 220l0 1 1 0 0 0 0 0-1-1-1 0M333 220l0 1 1 0 0 0 0 0-1-1-1 0M324 219c0 0 0 0 1 0s1 0 1 1c0 0 0 1 0 1s0 0 0 0M324 219c0 0 0 0 1 0s1 0 1 1c0 0 0 1 0 1s0 0 0 0zM330 220c0 0 0 0 1 0s1 0 1 1c0 0 0 1 0 1s0 0 0 0M330 220c0 0 0 0 1 0s1 0 1 1c0 0 0 1 0 1s0 0 0 0zM324 214c0 0 0-1 1-1s1 0 1 1c0 1 0 1-1 1s-1 0-1-1M326 214v1h-1v-1h1v-1h-1v-1h1v-1h1v1h1v1h-1v1h0M326 214v1h-1v-1h1v-1h-1v-1h1v-1h1v1h1v1h-1v1h0zM326 214v1h-2v-1h1v-1h-1v-1h1v-1h1v1h1v1h-1v1h1M325 213c0 0 1 0 1 1 0 1 0 1-1 1 0 0-1 0-1-1 0 0 0-1 1-1M315 221c0 0 0 0-1-1 0 0-1 0-1 0 0 0 0 0 1 0 0 0 0 0 1 0l0 0s0 0 0 0c0 0 0 1 0 1s0 0 0 0M315 221c0 0 0 0-1-1 0 0-1 0-1 0 0 0 0 0 1 0 0 0 0 0 1 0l0 0s0 0 0 0c0 0 0 1 0 1s0 0 0 0zM315 221c0 0 0 0 1 0s0 0 0 1c0 0 0 0 0 0 0 0 0 0 0 0M315 221c0 0 0 0 1 0s0 0 0 1c0 0 0 0 0 0 0 0 0 0 0 0zM335 221c0 0 0 0 1-1 0 0 1 0 1 0 0 0 0 0-1 0 0 0 0 0 0 0l0 0s0 0 0 0c0 0 0 1 0 1s0 0 0 0M335 221c0 0 0 0 1-1 0 0 1 0 1 0 0 0 0 0-1 0 0 0 0 0 0 0l0 0s0 0 0 0c0 0 0 1 0 1s0 0 0 0zM335 221c0 0 0 0 0 0s0 0 0 1c0 0 0 0 1 0 0 0 0 0 0 0M335 221c0 0 0 0 0 0s0 0 0 1c0 0 0 0 1 0 0 0 0 0 0 0zM314 232h22v-6h-22v6zM314 232h22v-6h-22v6zM334 236c0 0 0 0 0 0h-17c0 0 0 0 0 0 1 0 1-1 1-1s0-1-1-1c0 0 0 0 1 0h17c0 0 0 0 1 0l0 0c-1 0-1 1-1 1 0 1 0 1 1 1M334 236c0 0 0 0 0 0h-17c0 0 0 0 0 0 1 0 1-1 1-1s0-1-1-1c0 0 0 0 1 0h17c0 0 0 0 1 0l0 0c-1 0-1 1-1 1 0 1 0 1 1 1zM317 236h17c1 0 1 0 1 1 0 0 0 1-1 1h-17c-1 0-1 0-1-1 0 0 1-1 1-1M317 236h17c1 0 1 0 1 1 0 0 0 1-1 1h-17c-1 0-1 0-1-1 0 0 1-1 1-1zM317 232h17c1 0 1 0 1 1 0 0 0 1-1 1h-17c-1 0-1 0-1-1 0 0 1-1 1-1M317 232h17c1 0 1 0 1 1 0 0 0 1-1 1h-17c-1 0-1 0-1-1 0 0 1-1 1-1zM309 331c2 0 3 0 4-1 1 0 2-1 4-1 2 0 3 0 4 1 1 1 2 1 4 1 2 0 3 0 4-1 1 0 2-1 4-1 2 0 3 0 4 1 1 1 2 1 4 1v2c-1 0-3 0-4-1-1 0-2-1-4-1-1 0-3 0-4 1-1 1-2 1-4 1-1 0-3 0-4-1-1 0-2-1-4-1-1 0-3 0-4 1-1 1-2 1-4 1l0-2M309 331c2 0 3 0 4-1 1 0 2-1 4-1 2 0 3 0 4 1 1 1 2 1 4 1 2 0 3 0 4-1 1 0 2-1 4-1 2 0 3 0 4 1 1 1 2 1 4 1v2c-1 0-3 0-4-1-1 0-2-1-4-1-1 0-3 0-4 1-1 1-2 1-4 1-1 0-3 0-4-1-1 0-2-1-4-1-1 0-3 0-4 1-1 1-2 1-4 1l0-2zM309 333c2 0 3 0 4-1 1 0 2-1 4-1 2 0 3 0 4 1 1 1 2 1 4 1 2 0 3 0 4-1 1 0 2-1 4-1 2 0 3 0 4 1 1 1 2 1 4 1v2c-1 0-3 0-4-1-1 0-2-1-4-1-1 0-3 0-4 1-1 1-2 1-4 1-1 0-3 0-4-1s-2-1-4-1c-1 0-3 0-4 1-1 1-2 1-4 1l0-2M309 333c2 0 3 0 4-1 1 0 2-1 4-1 2 0 3 0 4 1 1 1 2 1 4 1 2 0 3 0 4-1 1 0 2-1 4-1 2 0 3 0 4 1 1 1 2 1 4 1v2c-1 0-3 0-4-1-1 0-2-1-4-1-1 0-3 0-4 1-1 1-2 1-4 1-1 0-3 0-4-1s-2-1-4-1c-1 0-3 0-4 1-1 1-2 1-4 1l0-2M309 336c2 0 3 0 4-1 1 0 2-1 4-1 2 0 3 0 4 1 1 1 2 1 4 1 2 0 3 0 4-1 1 0 2-1 4-1 2 0 3 0 4 1 1 1 2 1 4 1v2c-1 0-3 0-4-1-1 0-2-1-4-1-1 0-3 0-4 1-1 1-2 1-4 1-1 0-3 0-4-1-1 0-2-1-4-1-1 0-3 0-4 1-1 1-2 1-4 1l0-2M309 336c2 0 3 0 4-1 1 0 2-1 4-1 2 0 3 0 4 1 1 1 2 1 4 1 2 0 3 0 4-1 1 0 2-1 4-1 2 0 3 0 4 1 1 1 2 1 4 1v2c-1 0-3 0-4-1-1 0-2-1-4-1-1 0-3 0-4 1-1 1-2 1-4 1-1 0-3 0-4-1-1 0-2-1-4-1-1 0-3 0-4 1-1 1-2 1-4 1l0-2M309 340c2 0 3 0 4-1 1 0 2-1 4-1 2 0 3 0 4 1 1 1 2 1 4 1 2 0 3 0 4-1 1 0 2-1 4-1 2 0 3 0 4 1 1 1 2 1 4 1v-2c-1 0-3 0-4-1-1 0-2-1-4-1-1 0-3 0-4 1-1 1-2 1-4 1-1 0-3 0-4-1-1 0-2-1-4-1-1 0-3 0-4 1-1 1-2 1-4 1l0 2M309 340c2 0 3 0 4-1 1 0 2-1 4-1 2 0 3 0 4 1 1 1 2 1 4 1 2 0 3 0 4-1 1 0 2-1 4-1 2 0 3 0 4 1 1 1 2 1 4 1v-2c-1 0-3 0-4-1-1 0-2-1-4-1-1 0-3 0-4 1-1 1-2 1-4 1-1 0-3 0-4-1-1 0-2-1-4-1-1 0-3 0-4 1-1 1-2 1-4 1l0 2M309 343c2 0 3 0 4-1 1 0 2-1 4-1 2 0 3 0 4 1 1 1 2 1 4 1 2 0 3 0 4-1 1 0 2-1 4-1 2 0 3 0 4 1 1 1 2 1 4 1v-2c-1 0-3 0-4-1-1 0-2-1-4-1-1 0-3 0-4 1-1 1-2 1-4 1-1 0-3 0-4-1s-2-1-4-1c-1 0-3 0-4 1-1 1-2 1-4 1l0 2M309 343c2 0 3 0 4-1 1 0 2-1 4-1 2 0 3 0 4 1 1 1 2 1 4 1 2 0 3 0 4-1 1 0 2-1 4-1 2 0 3 0 4 1 1 1 2 1 4 1v-2c-1 0-3 0-4-1-1 0-2-1-4-1-1 0-3 0-4 1-1 1-2 1-4 1-1 0-3 0-4-1s-2-1-4-1c-1 0-3 0-4 1-1 1-2 1-4 1l0 2zM334 321c0 0 0 0 0 1 0 2 1 3 3 3h-23c2 0 3-1 3-3 0 0 0 0 0-1 0 0 0 0 0 0h17c0 0 0 0 0 0M334 321c0 0 0 0 0 1 0 2 1 3 3 3h-23c2 0 3-1 3-3 0 0 0 0 0-1 0 0 0 0 0 0h17c0 0 0 0 0 0h0zM317 319h17c1 0 1 0 1 1s0 1-1 1h-17c-1 0-1 0-1-1s1-1 1-1M317 319h17c1 0 1 0 1 1s0 1-1 1h-17c-1 0-1 0-1-1s1-1 1-1zM313 330h23v-6h-23v6zM313 330h23v-6h-23v6zM338 299c2 1 4 3 4 3 0 1-1 1-2 2-2 1-3 3-2 4-1-1-2-3-2-4 0-2 1-4 2-5M338 299c2 1 4 3 4 3 0 1-1 1-2 2-2 1-3 3-2 4-1-1-2-3-2-4 0-2 1-4 2-5zM317 318h16v-80h-16v80zM329 239v80m2-79v80M317 318h16v-80h-16v80zM300 269c4-1 10-2 17-3 2 0 5 0 8 1 10 2 17 6 17 9 0 0 0 0 0 0 0 0 4-8 4-8 1-3-8-8-18-10-3-1-7-1-10-1-7 0-13 1-16 2l0 10M300 269c4-1 10-2 17-3 2 0 5 0 8 1 10 2 17 6 17 9 0 0 0 0 0 0 0 0 4-8 4-8 1-3-8-8-18-10-3-1-7-1-10-1-7 0-13 1-16 2l0 10M333 279c5 0 8-1 8-3 0-1-1-3-4-5-1 0-3 0-4 0l0 8M333 279c5 0 8-1 8-3 0-1-1-3-4-5-1 0-3 0-4 0l0 8M317 272c-3 0-5 1-6 2l0 0c0 1 2 3 6 6l0-8M317 272c-3 0-5 1-6 2l0 0c0 1 2 3 6 6l0-8M343 294c0-1-4-4-10-6-3-1-5-2-8-3-9-4-15-8-14-10l0 0c0 0-1 8-1 8-1 2 5 6 13 10 3 1 8 3 11 4 5 2 9 5 9 6l2-8M343 294c0-1-4-4-10-6-3-1-5-2-8-3-9-4-15-8-14-10l0 0c0 0-1 8-1 8-1 2 5 6 13 10 3 1 8 3 11 4 5 2 9 5 9 6l2-8v0zM310 265c1-2 1-5 2-7 0 0 0 0 0 0 0 0 0 0 0 0 0 2-1 3-1 5-1-1-2-3-3-4 0 0-1 0-1 0s-1 0-1 0c2 2 3 4 4 6 0 0 0 0 1 0 0 0 0 0 1 0M317 258c0 0-1 0-1 0 0 0-1 0-1 0l0 6 5 0c0 0 0 0 0 0s0 0 0 0c-1 0-2 0-3 0l0-6M324 259c1 0 1 0 2 0 0 0 0 0 0 0 0 0 0 0 0 0l-6 0c0 0 0 0 0 0 0 0 0 0 0 0 1 0 1 0 2 0l0 6c0 0 1 0 1 0 0 0 1 0 1 0l1-6M326 266c0 0 1 0 1 0 0 0 1 0 1 0l1-3 0 0c0 0 0 1 1 1l1 2c0 0 1 0 1 0 0 0 1 0 1 0l0-1c0-1-1-2-1-3 1 0 2 0 2-1 0-1 0-1-1-1 0 0-1 0-2-1l-2 0-1 6m3-5c1 0 2 0 2 1 0 0 0 0 0 1 0 1-1 1-2 1l1-2M338 268c0 1 0 1 0 2 0 0 1 0 1 0 0 0 1 0 1 1l1-7c0 0 0 0 0 0 0 0 0 0 0 0l-6 4c0 0 0 0 1 0 0 0 0 0 1 0 1 0 1-1 2-1l2 1v0zm-2-2l2-1 0 2-2-1M225 201c0-1 1-2 2-2 1 0 2 1 2 2 0 1-1 2-2 2-1 0-2-1-2-2z" class="a"/><path d="m250 183c7 0 13 1 16 3 2 1 5 2 8 2 3 0 5 0 7 0 3 0 7 1 11 3 3 2 6 3 8 5l-2 1 0 4-4 5-2 2-5 4-3 0-1 2-33-4-33 4-1-2-3 0-5-4-2-2-4-5 0-4-2-1c2-2 5-3 8-5 4-2 8-2 11-2 2 0 4 0 7 0 3 0 6-1 8-2 4-1 9-2 16-2z" style="fill:#ad1519;stroke-width:0.3;stroke:#000"/><path d="m250 226c-12 0-23-1-31-4-1 0-1-1-1-1 0 0 0-1 1-1 8-2 19-4 31-4 12 0 23 2 31 4 1 0 1 1 1 1 0 1 0 1-1 1-8 2-19 4-31 4M250 225 250 225 250 225c-11 0-21-1-29-3 8-2 18-3 29-3 11 0 21 1 29 3-8 2-18 3-29 3M251 225v-7M249 225v-7M248 225v-7M246 225v-7M244 225v-7M242 224l0-6m1 6v-6M239 224v-5m1 6l0-6M235 224v-5m1 5v-5m1 5v-5M234 224v-5M233 223v-4M232 223v-4M229 223l0-3m1 3v-4M228 223v-3M227 223v-2M226 222v-2" class="m"/><path d="m224 222v-1" style="fill:none;stroke-width:0.8;stroke:#000"/><path d="m223 222v-1" style="fill:none;stroke-width:0.9;stroke:#000"/><path d="m258 224v-6m-3 6l0-6m-2 7v-6M250 216 250 216 250 216c-12 0-23 2-31 4 1 0 1-1 0-3-1-2-2-2-2-2 9-3 21-4 34-4 13 0 26 2 34 4 0 0-1 0-2 2-1 2-1 3 0 3-8-2-19-4-32-4M250 210c-13 0-25 2-34 4-1 0-1 0-1-1s0-1 1-1c9-3 21-4 35-4 14 0 26 2 35 4 1 0 1 1 1 1s-1 1-1 1c-9-3-21-4-34-4M250 225c-11 0-21-1-29-3 8-2 18-3 29-3 11 0 21 1 29 3-8 2-18 3-29 3zM241 213c0-1 1-1 1-1 1 0 1 1 1 1 0 1 0 1-1 1-1 0-1 0-1-1M250 214h-3c-1 0-1 0-1-1 0-1 1-1 1-1h7c1 0 1 1 1 1 0 1 0 1-1 1h-3M234 215l-2 0c-1 0-1 0-1-1 0-1 0-1 1-1l2 0 2 0c1 0 1 0 1 1s0 1-1 1l-2 0M224 215c0-1 1-1 1-1s1 1 1 1c0 1 0 1-1 1s-1 0-1-1M217 217l1-2 3 0-3 2-2-1M267 215l2 0c1 0 1 0 1-1s0-1-1-1l-2 0-2 0c-1 0-1 0-1 1 0 1 0 1 1 1l2 0M258 213c0-1 1-1 1-1 1 0 1 1 1 1 0 1 0 1-1 1-1 0-1 0-1-1M274 215c0-1 1-1 1-1s1 1 1 1c0 1 0 1-1 1s-1 0-1-1M284 217l-1-2-3 0 3 2 2-1M220 222c8-2 18-3 30-3 12 0 22 1 30 4M225 191l1 1 2-3c-2-1-4-4-4-6 0 0 0-1 0-1 0-4 6-8 12-8 4 0 7 1 9 3 0-1 0-1 0-2-2-1-6-2-9-2-8 0-14 4-14 10 0 0 0 1 0 1 0 3 1 5 3 7l-1 2M225 191l1 1 2-3c-2-1-4-4-4-6 0 0 0-1 0-1 0-4 6-8 12-8 4 0 7 1 9 3 0-1 0-1 0-2-2-1-6-2-9-2-8 0-14 4-14 10 0 0 0 1 0 1 0 3 1 5 3 7l-1 2M225 192c-3-2-4-5-4-8 0-3 2-6 6-8-2 2-3 4-3 6 0 0 0 1 0 1 0 3 1 5 3 7l-1 2M225 192c-3-2-4-5-4-8 0-3 2-6 6-8-2 2-3 4-3 6 0 0 0 1 0 1 0 3 1 5 3 7l-1 2M202 195c-1-2-2-4-2-6 0-1 0-3 1-4 2-4 9-8 17-8 2 0 4 0 6 1 0 1-1 1-1 2-2 0-3 0-5 0-7 0-13 3-15 7 0 1-1 2-1 3 0 2 1 4 3 6l-3 4-1-1 2-3M202 195c-1-2-2-4-2-6 0-1 0-3 1-4 2-4 9-8 17-8 2 0 4 0 6 1 0 1-1 1-1 2-2 0-3 0-5 0-7 0-13 3-15 7 0 1-1 2-1 3 0 2 1 4 3 6l-3 4-1-1 2-3zM205 181c-2 1-3 3-4 4-1 1-1 3-1 4 0 2 1 5 2 6l-2 3c-1-2-2-4-2-7 0-4 3-8 7-10M205 181c-2 1-3 3-4 4-1 1-1 3-1 4 0 2 1 5 2 6l-2 3c-1-2-2-4-2-7 0-4 3-8 7-10zM250 171c2 0 3 1 4 3 0 1 0 3 0 5 0 0 0 0 0 1 0 0 0 0 0 1 0 4 1 7 1 9l-5 5-5-5c1-2 1-5 1-8 0 0 0 0 0-1 0 0 0 0 0 0 0-2 0-3 0-5 0-2 2-3 4-3M250 171c2 0 3 1 4 3 0 1 0 3 0 5 0 0 0 0 0 1 0 0 0 0 0 1 0 4 1 7 1 9l-5 5-5-5c1-2 1-5 1-8 0 0 0 0 0-1 0 0 0 0 0 0 0-2 0-3 0-5 0-2 2-3 4-3zM250 173c1 0 2 1 2 1 0 1 0 3 0 4 0 0 0 0 0 1 0 0 0 0 0 1 0 3 1 6 1 8l-3 3-3-3c1-2 1-5 1-8 0 0 0 0 0-1 0 0 0 0 0 0 0-2 0-3 0-4 0-1 1-1 2-1M250 173c1 0 2 1 2 1 0 1 0 3 0 4 0 0 0 0 0 1 0 0 0 0 0 1 0 3 1 6 1 8l-3 3-3-3c1-2 1-5 1-8 0 0 0 0 0-1 0 0 0 0 0 0 0-2 0-3 0-4 0-1 1-1 2-1zM275 191l-1 1-2-3c2-1 4-4 4-6 0 0 0-1 0-1 0-4-5-8-12-8-3 0-7 1-9 3 0-1 0-1 0-2 2-1 6-2 9-2 8 0 14 4 14 10 0 0 0 1 0 1 0 3-1 5-3 7l1 2M275 191l-1 1-2-3c2-1 4-4 4-6 0 0 0-1 0-1 0-4-5-8-12-8-3 0-7 1-9 3 0-1 0-1 0-2 2-1 6-2 9-2 8 0 14 4 14 10 0 0 0 1 0 1 0 3-1 5-3 7l1 2M275 192c3-2 4-5 4-8 0-3-2-6-6-8 2 2 3 4 4 6 0 0 0 1 0 1 0 3-1 5-3 7l1 2M275 192c3-2 4-5 4-8 0-3-2-6-6-8 2 2 3 4 4 6 0 0 0 1 0 1 0 3-1 5-3 7l1 2M298 195c2-2 2-4 2-6 0-1 0-3-1-4-2-4-9-8-17-8-2 0-4 0-6 1 0 1 1 1 1 2 2 0 3 0 5 0 7 0 13 3 15 7 1 1 1 2 1 3 0 2-1 4-3 6l3 4 1-1-2-3M298 195c2-2 2-4 2-6 0-1 0-3-1-4-2-4-9-8-17-8-2 0-4 0-6 1 0 1 1 1 1 2 2 0 3 0 5 0 7 0 13 3 15 7 1 1 1 2 1 3 0 2-1 4-3 6l3 4 1-1-2-3zM295 181c2 1 3 3 4 4 1 1 1 3 1 4 0 2-1 5-2 6l2 3c2-2 2-4 2-7 0-4-3-8-7-10M295 181c2 1 3 3 4 4 1 1 1 3 1 4 0 2-1 5-2 6l2 3c2-2 2-4 2-7 0-4-3-8-7-10zM248 189c0-1 1-2 2-2 1 0 2 1 2 2 0 1-1 2-2 2-1 0-2-1-2-2M248 189c0-1 1-2 2-2 1 0 2 1 2 2 0 1-1 2-2 2-1 0-2-1-2-2zM248 185c0-1 1-2 2-2 1 0 2 1 2 2 0 1-1 2-2 2-1 0-2-1-2-2M249 182c0-1 1-1 2-1 1 0 2 1 2 1s-1 1-1 1c-1 0-1-1-1-1M249 178c0-1 1-1 1-1 1 0 1 1 1 1 0 1 0 1-1 1-1 0-1 0-1-1M249 175c0 0 0-1 1-1 1 0 1 0 1 1s0 1-1 1c0 0-1 0-1-1M250 200l1 0c0 1 0 1 0 2 0 3 2 5 5 5 2 0 4-1 5-3 0 0 1-2 1-2 0 0 0 2 0 2 0 2 3 4 5 4 3 0 5-2 5-5 0 0 0 0 0-1l2-1 1 2c0 1 0 1 0 2 0 3 2 4 5 4 2 0 3-1 4-2l1-1 0 2c0 2 1 3 2 3 0 0 2 0 4-2 2-2 4-3 4-3l0 2s-2 3-4 4c-1 1-3 1-4 1-1 0-2-1-3-3-1 1-2 1-3 1-3 0-5-1-6-4-1 1-3 2-5 2-2 0-4-1-6-3-1 1-3 2-5 2-2 0-5-1-6-3-1 2-3 3-6 3-2 0-4-1-5-2-1 2-3 3-6 3-2 0-4-1-5-2-1 2-3 4-6 4-1 0-2 0-3-1 0 1-2 3-3 3-1 0-3 0-4-1-2-1-4-4-4-4l0-2s1 2 4 3c2 2 4 2 4 2 2 0 2-2 2-3l0-1 1 1c1 1 2 2 4 2 3 0 5-2 5-4 0-1 0-1 0-2l1-2 2 2c0 0 0 0 0 1 0 3 2 5 5 5 2 0 5-2 5-4 0 0 0-2 0-2 0 0 1 2 1 2 1 2 3 3 5 3 3 0 5-2 5-5 0-1 0-1 0-2l1 0M284 206c0-1 0-2-1-2-1 0-1 0-2 1 0 1 0 2 1 2 1 0 1 0 2-1M263 202c0-1 0-2-1-2s-1 1-1 1c0 1 0 2 1 2 1 0 1-1 1-1M238 202c0-1 0-2 1-2 1 0 1 1 1 1 0 1 0 2-1 2-1 0-1-1-1-1M216 206c0-1 0-2 1-2 1 0 1 0 2 1s0 2-1 2c-1 0-1 0-2-1M226 192c1 1 2 2 2 3 0 0 0 0 1-1 1 0 1 0 1 0s0 1 0 1c0 0 0 1 0 2 0 1-1 2-1 2 0 0-1 0-2 0-1 0-1 0-1 1 0 0-1-1-1-1 0-1-1-2-1-2 0 0-1-1-1-1s1 0 1 0c1 0 1 0 1 0 0-1 0-3 1-4M226 202c0 0-1-1-1-1s0-1 0-1c0 0-1 0-2-1-1 0-2 0-2 0 0 0-1 0-1 0s0 0 0 1c0 1 1 1 1 1-1 0-2 1-3 2 1 1 2 1 4 1 0 0 0 0 0 1 0 0 0 1 0 1s1 0 1 0c0 0 2 0 2-1 1 0 2-1 2-1M229 201c0 0 0-1 0-1s0-1-1-1c0 0 1-1 2-1 1 0 2-1 2-1 0 0 1 0 1 0s0 0 0 1c0 1 0 1 0 1 1 0 3 0 4 1-1 1-2 2-3 2 0 0 0 0 1 1 0 0 0 1 0 1s-1 0-1 0c0 0-2 0-2 0-1 0-2-1-2-1M225 201c0-1 1-2 2-2 1 0 2 1 2 2 0 1-1 2-2 2-1 0-2-1-2-2M250 188c1 1 2 2 2 4 0 0 0 0 1 0 1 0 1 0 1 0s0 1 0 1c0 0 0 2-1 3 0 1-1 2-1 2 0 0-1-1-2-1-1 0-1 0-2 1 0 0-1-1-1-2 0-1-1-2-1-2s-1-1-1-1 1 0 1 0 1 1 1 1c0-1 1-3 2-4M249 200c0 0 0-1 0-1 0 0 0-1 1-1 0 0-1-1-2-1-1 0-2-1-3-1 0 0-1 0-1 0s0 0 0 1c0 1 0 1 0 1-1 0-3 1-4 2 1 1 2 2 4 2 0 0 0 0 0 1 0 1 0 1 0 1s1 0 1 0c0 0 2 0 3-1 1 0 2-1 2-1M252 200c0 0 1-1 1-1 0 0 0-1 0-1 0 0 1-1 2-1 1 0 2-1 3-1 0 0 1 0 1 0s0 0 0 1c0 1 0 1 0 1 2 0 3 1 4 2-1 1-2 2-4 2 0 0 0 0 0 1 0 1 0 1 0 1l-1 0c0 0-2 0-3-1-1 0-2-1-2-1M275 192c-1 1-2 2-2 3 0 0 0 0-1-1-1 0-1 0-1 0s0 1 0 1c0 0 0 1 0 2 0 1 1 2 1 2 0 0 1 0 2 0 1 0 1 0 1 1 0 0 1-1 1-1 1-1 1-2 1-2 0 0 1-1 1-1s0 0-1 0c-1 0-1 0-1 0 0-1 0-3-1-4M274 202c0 0 1-1 1-1 0 0 0-1 0-1 0 0 1 0 2-1 1 0 2 0 2 0 0 0 1 0 1 0s0 0 0 1c0 1 0 1 0 1 1 0 2 1 3 2-1 1-2 1-4 1 0 0 0 0 0 1 0 0 0 1 0 1s-1 0-1 0c0 0-1 0-2-1-1 0-1-1-1-1M271 201c0 0 0-1 0-1 0 0 0-1 1-1 0 0-1-1-1-1-1 0-2-1-2-1 0 0-1 0-1 0s0 0 0 1c0 1 0 1 0 1-1 0-3 0-4 1 1 1 2 2 3 2 0 0 0 0 0 1 0 0 0 1 0 1l1 0c0 0 2 0 2 0 1 0 2-1 2-1M271 201c0-1 1-2 2-2s2 1 2 2c0 1-1 2-2 2s-2-1-2-2M295 205c0 0-2 0-2 0-1 1-1 2 0 2 1 1 2 0 2 0 1-1 1-2 1-2M292 206c0 0 0-1 1-1 1-1 2-1 2 0 0 0 0 0 0 0 0 0 1-2 2-3s4 0 4 0c0-2-1-3-3-3-1 0-2 0-2 1l0-1s-1 0-2 2 0 4 0 4 0-1-1-2c0-1-2-1-2-2-1 0-1-1-1-1s0 0 0 1c0 1 0 1 0 1-1 0-3 0-4 1 1 1 1 2 3 2 0 0 0 0-1 1 0 0 0 1 0 1s1 0 1 0c0 0 2 0 3 0 1 0 1 0 2 0M208 206c0 0 0-1-1-1-1-1-2-1-2 0 0 0 0 0 0 0 0 0-1-2-2-3-1-1-3 0-3 0 0-2 1-3 3-3 1 0 2 0 3 1l0-1s1 0 2 2 0 4 0 4 0-1 1-2c1-1 2-1 3-2 1 0 1-1 1-1s0 0 0 1c0 1 0 1 0 1 1 0 3 0 4 1 0 1-1 2-3 2 0 0 0 0 1 1 0 0 0 1 0 1s-1 0-1 0c0 0-2 0-3 0-1 0-1 0-2 0M205 205c1 0 2 0 2 0 1 1 1 2 1 2 0 1-2 0-2 0-1-1-1-2 0-2M248 199c0-1 1-2 2-2 1 0 2 1 2 2 0 1-1 2-2 2s-2-1-2-2" class="l"/><path d="m246 167c0-2 2-4 4-4 3 0 4 2 4 4s-2 4-4 4c-2 0-4-2-4-4" style="fill:#005bbf;stroke-width:0.3;stroke:#000"/><path d="m249 156v2h-2v2h2v3 4h-3c0 0 0 0 0 1 0 1 0 1 0 2 0 0 0 0 0 0h8c0 0 0 0 0 0 0 0 0-1 0-2 0 0 0 0 0-1h-3v-3-3h2v-2h-2v-2h-2z" style="fill:#c8b100;stroke-width:0.3;stroke:#000"/><path d="m251 344c-13 0-26-3-37-8-8-4-13-12-13-21v-33h100v33c0 9-5 17-13 21-11 5-24 9-37 9M251 344 251 344 251 344c-13 0-26-3-37-8-8-4-13-12-13-21v-33h100v33c0 9-5 17-13 21-11 5-24 9-37 9zM250 281h50v-56h-50v56zM250 281h50v-56h-50v56zM250 315c0 13-11 24-25 24s-25-11-25-24v-33h50v33M211 334c2 1 4 2 6 3l0-57h-6v54z" class="j"/><path d="m200 314c0 7 3 12 6 16v-49h-6l0 34z" style="fill:#c8b100;stroke-linejoin:round;stroke-width:0.5;stroke:#000"/><path d="m222 338c2 0 4 0 6 0v-58h-6v58z" style="fill:#c7b500;stroke-width:0.5;stroke:#000"/><path d="m233 337c2 0 5-2 6-3v-54h-6l0 57zM200 281 200 281 200 281h50v-56h-50v56zM200 281h50v-56h-50v56zM245 329c3-2 5-7 6-13l0-36h-6l0 49zM250 315c0 13-11 24-25 24s-25-11-25-24v-33h50v33M301 281v33c0 13-11 24-25 24-14 0-25-11-25-24v-33h50M301 281v33c0 13-11 24-25 24-14 0-25-11-25-24v-33h50M260 306c0 0 0 0 0 1 0 1 0 1-1 1s-1 0-1-1c0 0 0 0 0 0l-2 0c0 0 0 0 0 1 0 1 1 2 2 3v4l2 0 0-4c1 0 1-1 2-2h5v-1h-6m23 0v1l-4 0c0 0 0 0 0 1l5 6-1 1-5-5c0 0 0 0 0 0l0 9h-2l0-9c0 0 0 0 0 0l-5 6-1-1 5-5c0 0 0 0 0 0h-4v-1h14 0zm3 0v1h5c0 1 1 1 2 2v4l2 0v-4c1 0 2-1 2-2 0 0 0 0 0 0h-2c0 0 0 0 0 1 0 1 0 1-1 1-1 0-1 0-1-1 0 0 0 0 0 0l-6 0m-7 23c1 0 3-1 4-1l1 1c-1 1-3 1-4 1 0 1-1 2-3 2s-2-1-3-2c-2 0-3-1-5-1l1-1c1 1 3 1 4 1 0-1 1-1 2-1l0-7h2l0 7c1 0 1 1 2 1zm-11-2l-1 1c-1-1-3-2-4-3-1 0-2 0-3 0-1-1-1-3 0-4l0 0c-1-2-1-3-1-5l2 0c0 2 1 3 1 4 1 0 1 0 2 0l4-5 1 1-4 5c1 1 1 2 0 3 1 1 2 2 3 3zm-6-5c0 0 1 0 2 0s1 1 0 2c0 1-1 1-2 0s0-1 0-2zm-2-5l-2 0 0-4 2-1v3c0 1 0 2 0 3zm2-5l2 0s0 3 0 2c0-1 0 2 0 2l-2 1c0-1 0-2 0-3l0-3zm6 14c2 1 3 2 5 3l0-2c-1 0-3-1-4-2l-1 1m-1 2c2 1 3 2 5 3l-1 1c-1 0-3-1-4-2l0-2m2-10l2 1 3-3-1-1-4 4m-1-1l-1-1 3-3 2 1-4 4m19 10l1 1c1-1 3-2 4-3 1 0 2 0 3 0 1-1 1-3 0-4l0 0c1-2 1-3 1-5l-2 0c0 2 0 3-1 4 0 0-1 0-1 0l-4-5-1 1 4 5c-1 1 0 2 0 3-1 1-2 2-3 3zm6-5c0 0-1 0-2 0s0 1 0 2c0 1 1 1 2 0s1-1 0-2zm2-5l2 0 0-4-2-1 0 3c0 1 0 2 0 3zm-1-5l-2 0s0 3 0 2c0-1 0 2 0 2l2 1c0-1 0-2 0-3v-3m-6 14c-1 1-3 2-5 3l0-2c2 0 3-1 4-2l1 1m1 2c-1 1-3 2-5 3l1 1c2 0 3-1 4-2l0-2m-2-10l-2 1-3-3 1-1 4 4m1-1l1-1-3-3-2 1 4 4m-21-9l1 2h5l1-2h-6m22 0l0 2h-5l0-2h6m-12 23c0-1 1-1 1-1 1 0 1 1 1 1 0 1 0 1-1 1-1 0-1 0-1-1zm2-8l2 0v-4l-2 0v5m-2 0l-2 0v-4l2 0v5M256 306c0-1 1-2 2-2l0-5h2v6c1 0 2 1 2 2l5 0v0h-6c0 0-1-1-1-1 0 0-1 0-1 1l-2 0m13 0v0h4c0 0 0 0 0 0l-5-6 1-1 5 6c0 0 0 0 0 0v-8h2v8c0 0 0 0 0 0l5-6 1 1-5 6c0 0 0 0 0 1h4v0h-14zm23 0c0 0 1-1 1-1 1 0 1 0 1 1l2 0c0-1-1-2-2-2l0-5h-2l0 6c-1 0-1 1-2 2l-5 0v0h6m-31-15l6 7 1-1-6-7c0 0 0 0 0-1h5v-2h-5c0-1-1-2-3-2-1 0-3 1-3 3 0 1 1 2 2 3l0 6h2v-5c0 0 0 0 0 0zm33 0l0 5h-2v-5c0 0 0 0 0 0l-6 7-1-1 6-7c0 0 0 0 0 0h-5v-2h5c0-1 1-2 3-2 2 0 3 1 3 3 0 1-1 2-2 3zm-17 0l0 3h-2l0-3c-1 0-1-1-2-2h-4v-2h4c0-1 1-2 3-2 1 0 2 1 3 2h4v2h-4c0 1-1 1-2 2zm-18 4l-2 1v5l2 1v-5m2 0l2 1v5l-2 1v-5m32 0l-2 1v5l2 1v-5m2 0l2 1v5l-2 1v-5m-27 1l2-1 3 3-1 2-4-4m-1 1l-1 2 3 3 2-1-4-4m19-1l-2-1-3 3 1 1 4-4m1 1l1 2-3 3-2-1 4-4m-21 9l1-2h5l1 2h-6m-7-18c0-1 1-1 1-1 1 0 1 1 1 1s0 1-1 1c-1 0-1 0-1-1zm13 1l0 2h-5l0-2h6m0-2l0-2h-5l0 2h6m16 19l0-2h-5l0 2h6m5-18c0-1 1-1 1-1 1 0 1 1 1 1s0 1-1 1c-1 0-1 0-1-1zm-17 0c0-1 1-1 1-1 1 0 1 1 1 1s0 1-1 1c-1 0-1 0-1-1zm7 1l1 2h5l1-2h-6m0-2l1-2h5l1 2h-6m-6 5l-2 1v5l2 1v-5m2 0l2 1v5l-2 1v-5M278 329c1 0 3-1 4-1l1 1c-1 1-3 1-4 1 0 1-1 2-3 2s-2-1-3-2c-2 0-3-1-5-1l1-1c1 1 3 1 4 1 0-1 1-1 2-1l0-7h2l0 7c1 0 1 1 2 1zm-5-21c0 0 0 0 0 0h-4v-2h4c0 0 0 0 0 0l-5-6 1-1 5 6c0 0 0 0 0 0v-8h2v8c0 0 0 0 0 0l5-6 1 1-5 6c0 0 0 0 0 1h4v2l-4 0c0 0 0 0 0 1l5 6-1 1-5-5c0 0 0 0 0 0l0 9h-2v-9c0 0 0 0 0 0l-5 6-1-1 5-5m-13-17l6 7 1-1-6-7c0 0 0 0 0-1h5v-2h-5c0-1-1-2-3-2-1 0-3 1-3 3 0 1 1 2 2 3l0 5h2v-5c0 0 0 0 0 0zm7 36l-1 1c-1-1-3-2-4-3-1 0-2 0-3 0-1-1-1-3 0-4l0 0c-1-2-1-3-1-5l2 0c0 2 1 3 1 4 1 0 1 0 2 0l4-5 1 1-4 5c1 1 1 2 0 3 1 1 2 2 3 3zm-9-14v-4c-1 0-2-1-2-2 0-1 1-2 2-2l0-5h2v6c1 0 2 1 2 2l5 0v2h-5c0 1-1 1-2 2l0 4-2 0m2 9c0 0 1 0 2 0s1 1 0 2c0 1-1 1-2 0s0-1 0-2zm-2-5l-2 0 0-4 2-1v3c0 1 0 2 0 3zm2-5l2 0s0 3 0 2c0-1 0 2 0 2l-2 1c0-1 0-2 0-3l0-3zm6 14c2 1 3 2 5 3l0-2c-1 0-3-1-4-2l-1 1m-1 2c2 1 3 2 5 3l-1 1c-1 0-3-1-4-2l0-2M267 318l2 1 3-3-1-1-4 4m-1-1l-1-1 3-3 2 1-4 4m-8-10c0-1 1-1 1-1 1 0 1 1 1 1s0 1-1 1c-1 0-1 0-1-1zm27 20l1 1c1-1 3-2 4-3 1 0 2 0 3 0 1-1 1-3 0-4l0 0c1-2 1-3 1-5l-2 0c0 2 0 3-1 4 0 0-1 0-1 0l-4-5-1 1 4 5c-1 1 0 2 0 3-1 1-2 2-3 3zm9-14l0-4c1 0 2-1 2-2 0-1-1-2-2-2l0-5h-2l0 6c-1 0-1 1-2 2l-5 0v2h5c0 1 1 1 2 2v4l2 0h0zm-2 9c0 0-1 0-2 0s0 1 0 2c0 1 1 1 2 0s1-1 0-2zm2-5l2 0 0-4-2-1 0 3c0 1 0 2 0 3zm-1-5l-2 0s0 3 0 2c0-1 0 2 0 2l2 1c0-1 0-2 0-3v-3m2-21l0 5h-2v-5c0 0 0 0 0 0l-6 7-1-1 6-7c0 0 0 0 0 0h-5v-2h5c0-1 1-2 3-2 2 0 3 1 3 3 0 1-1 2-2 3zm-17 0l0 3h-2l0-3c-1 0-1-1-2-2h-4v-2h4c0-1 1-2 3-2 1 0 2 1 3 2h4v2h-4c0 1-1 1-2 2zm9 35c-1 1-3 2-5 3l0-2c2 0 3-1 4-2l1 1m1 2c-1 1-3 2-5 3l1 1c2 0 3-1 4-2l0-2m-29-33l-2 1v5l2 1v-5m2 0l2 1v5l-2 1v-5m32 0l-2 1v5l2 1v-5M293 295l2 1v5l-2 1v-5m-9 23l-2 1-3-3 1-1 4 4m1-1l1-1-3-3-2 1 4 4m-19-21l2-1 3 3-1 2-4-4m-1 1l-1 2 3 3 2-1-4-4m19-1l-2-1-3 3 1 1 4-4m1 1l1 1-3 3-2-1 4-4m-21 9l1-2h5l1 2h-6m0 2l1 2h5l1-2h-6m-7-19c0-1 1-1 1-1 1 0 1 1 1 1 0 1 0 1-1 1-1 0-1 0-1-1zm13 1l0 2h-5l0-2h6m0-2l0-2h-5l0 2h6m21 19c0-1 1-1 1-1 1 0 1 1 1 1s0 1-1 1c-1 0-1 0-1-1zm-5-1l0-2h-5l0 2h6m0 2l0 2h-5l0-2h6m-12 23c0-1 1-1 1-1 1 0 1 1 1 1 0 1 0 1-1 1-1 0-1 0-1-1zm2-8l2 0v-4l-2 0v5m-2 0l-2 0v-4l2 0v5m16-34c0-1 1-1 1-1 1 0 1 1 1 1 0 1 0 1-1 1-1 0-1 0-1-1zm-17 0c0-1 1-1 1-1 1 0 1 1 1 1 0 1 0 1-1 1-1 0-1 0-1-1zm7 1l1 2h5l1-2h-6m0-2l1-2h5l1 2h-6M274 293l-2 1v5l2 1v-5m2 0l2 1v5l-2 1v-5M273 307c0-1 1-3 3-3s3 1 3 3c0 1-1 3-3 3s-3-1-3-3M276 239l0-1 0 0s-2 0-2 0-2-1-2-1c-1-1-1-1-2-1-1 0-2 0-2 0s1 0 2 1 2 1 2 2c1 0 3 0 3 0 1 0 2 0 2 0M276 239l0-1 0 0s-2 0-2 0-2-1-2-1c-1-1-1-1-2-1-1 0-2 0-2 0s1 0 2 1 2 1 2 2c1 0 3 0 3 0 1 0 2 0 2 0z" class="v"/><path d="m284 237s0 1 0 1c0 1 0 1 0 2s0 1 0 1c0 0 0 1 0 1s0 0-1 0c0 0-1 0-1 0s0 1 0 1c0 0 0 1 1 1 0 0 1 1 1 1 0 1 0 1 0 1s0-1-1-1c0 0-1-1-1-1s1 1 1 2c0 1 0 2 0 2s0-1-1-1c0 0-1-1-1-1s1 1 1 2c0 1 0 3 0 3s0-1-1-1c0 0-1-1-1-1 0 0 1 1 1 1 0 1 0 2 2 5 1 1 2 4 6 3 3-1 2-5 1-7-1-2-1-4-1-5 0-1 1-3 1-3 0 0 0-2 0-3 0-1 1-2 1-2 0 0 0-1 1-1s0-1 0-1 1 1 1 1c0 0 0 2 0 2s0-1 1-2 2-1 2-1 0 0 0 0 0 2-1 3c0 1-2 2-2 2s1 0 1 0c1 0 1 0 1 0s-1 1-1 2c-1 1 0 1-1 2s-1 1-2 2c-1 1 0 4 0 5 0 1 2 5 2 6 0 1 0 3-2 5-1 1-3 1-3 1 0 0-1 1-1 3 0 2 1 2 1 3 1 0 1 0 1 1 0 0 0 1 0 1 0 0 0 0 0 1 0 0-1 1-1 2 0 1-1 2-1 3s0 1 0 1c0 0 1 1 0 1 0 0-1 0-1 0 0 0-1 1-1 1 0 0 0 0 0-1 0 0 0-1 0-1 0 0 0 0 0 1s0 1 0 1-1 0-1 0-1 0-1 0c0 0 0-1 1-1 0 0 1 0 1 0 0 0 0 0-1 0 0 0-1 0-1 0 0 0 0-1 0-1 0 0 0 0 0-1 1 0 1 0 1 0s1 0 1-1 0-1 0-1c0 0-1 0-1-1 0 0 0-1 0-1s0 1 0 1 0 1 0 1 0 0-1-1c0 0-1-1-1-1s0 1 0 1c0 0 0 1 0 1 0 0-1-1-1-1 0 0-1-1-1-1s0-1 0-1c0 0 0-1 0-2 0 0 1-1 1-1h-1c-1 0-1 0-2 0s0 2 0 3c0 1 1 2 1 2 0 0-1 1-1 1 0 0-1 0-1 0 0 0-1 0-1 0s-1 0-1 0c0 0-1 0-1 0s-1 0-1 1c0 1 0 1 0 1 0 0 0 0-1 0 0 0-1 0-1 0 0 0 0 0 0-1 0 0 0 0 0 0 0 0 0 0-1 0 0 0 0 1-1 0 0 0 0 0 0-1 0-1-1-1 0-1 1 0 1 1 2 0s0 0 0-1-1 0 0-1c1 0 1 0 1 0 0 0 0-1 1-1 1 0 0 1 1 1 1 1 1 1 2 1 1 0 1 0 1 0 0 0 0-1 0-1 0 0 0-1 0-1s0 0-1 1c0 0 0 1 0 1s0-1 0-1c0 0 0-1 0-1 0 0 0-1 0-1s0 1 0 1c0 0 0 1 0 1s-1-1 0-1c0-1 0-2 0-2 0 0 1-2 2-2 1 0 2 0 3 0 1 0 2 0 2 0s-3-1-4-2c-1 0-2-2-2-2 0 0-1-2-1-2s0 0-1 0c0 0-1 1-1 1s-1 1-1 1 0-1 0-1 0-1 0-1 0 1-1 2c-1 1-1 1-1 1s0-1 0-1c0 0 0-1 0-1s0 1-1 1c-1 0-2 0-2 1 0 1 0 1 0 1s0 1 0 1 0 0-1 0c0 0-1 0-1 0s0 0 0-1c0 0 1-1 1-1 0 0-1 0-1 0 0 0-1 0-1 0 0 0 0-1 0-1 0 0 0 0 0-1 0 0 1 0 1 0 0 0 0 0-1-1-1 0-1 0-1-1 0 0 0 0 1-1 0 0 0-1 1 0 1 0 0 1 1 1 1 0 2 0 2 0s1-1 2-1c0 0 2-1 2-1s-1 0-1-1c0 0-1-1-1-1 0 0-1-1-2-1 0 0-2 0-2 0s1 0 1 0c0 0 1-1 1 0 0 0 0 0 0 0s-1 0-1 0c0 0-1 0-1 0s-1 0-1 0 1 0 1-1c1 0 1 0 1 0s-1 0-1-1c0 0 0-1-1-1 0 0 0-1-1-1s-1 0-1 0 0 0-1-1c0 0 0 0 0 0 0 0-1-1 0-1 0 0 1 0 1 0 0 0 0-1-1-1 0 0-1 0-1-1 0 0 1 0 1-1s0-1 1-1c0 0 1 1 1 1 0 0 0-1 0-1 0 0 0-1 0-1s1 0 1 1c1 0 1 0 1 0 0 0 0 1-1 1 0 0 0 1 0 2 0 1 1 1 1 2s1 1 2 1c1 0 2 1 2 2s1 0 1 0 1 0 1 0 2 0 3 0 1-1 1-1c0 0-1-1-1-1s1 0 1 0c1 0 2 0 2-1 0-1 0-2-1-2-1 0-2 0-2-1 0-1 0-1 0-1 0 0 1 0 1 0 1 0 2 0 2 0 0 0 0-1 1-1 0 0 2 0 2 0s2 1 3 2c1 1 2 2 2 2" style="fill:#ed72aa;stroke-width:0.4;stroke:#000"/><path d="m273 236s0 0 0-1c0 0 0 0 0 0s1 0 1 0c0 0 0 0 0 0 0 0 0 0 0 0M273 236 273 236 273 236s0 0 0-1c0 0 0 0 0 0s1 0 1 0c0 0 0 0 0 0 0 0 0 0 0 0zM277 235l0 0s1 0 1 0c1 0 1 1 1 1 0 0 0 0-1 0 0 0 0 0 0 0 0 0 0 0 0 0 0 0 0 0 0 0l0 0M277 235l0 0s1 0 1 0c1 0 1 1 1 1 0 0 0 0-1 0 0 0 0 0 0 0 0 0 0 0 0 0 0 0 0 0 0 0l0 0zM283 241s0 0 0-1c0 0 0 0 0 0M262 236s1 0 1 0c0 0 1 0 1 0 0 0 0 0 0-1 0-1-1-1-1-1s0 1 0 1c0 1-1 1-1 1M262 236s1 0 1 0c0 0 1 0 1 0 0 0 0 0 0-1 0-1-1-1-1-1s0 1 0 1c0 1-1 1-1 1zM260 237s0-1-1-1c-1 0-1 1-1 1s1 0 1 0c0 0 1 1 1 1s1 0 1 0c0 0 0-1 0-1M260 237s0-1-1-1c-1 0-1 1-1 1s1 0 1 0c0 0 1 1 1 1s1 0 1 0c0 0 0-1 0-1zM259 240s-1 0-1 1c0 1 0 1 0 1s1 0 1 0c1 0 1 0 1 0s0-1 0-1 0-1 0-1M259 240s-1 0-1 1c0 1 0 1 0 1s1 0 1 0c1 0 1 0 1 0s0-1 0-1 0-1 0-1zM273 240l0 0 0 1-1 0M273 240l0 0 0 1-1 0M274 240l0 0 0 1-1 0M274 240l0 0 0 1-1 0M274 237l1 0-1 0 0-1M274 237l1 0-1 0 0-1M275 237l1 0-1 1 0-1M275 237l1 0-1 1 0-1M269 243s-1 0-1 1c0 1 0 1 0 1s1-1 2 0c1 0 1 0 1 0s1 0 1 0-1 1-1 2c0 1 0 1 0 1 0 1-1 2-1 2s0 0 1 0c1 0 1 0 2-1 0 0 1-1 1-1s0 1 0 1c0 0 0 2 0 2s1 0 1-1c0 0 1 0 1-1 0 0 0-1 0-1s0 1 0 1c0 0 1 2 1 2s0-1 1-1 1-1 1-1c0 0 0-1 0-1l0 1m-11 1s1-1 1-1c1 0 1-1 1-1 0 0 1 0 1 0m1 5s1 0 1-1c1 0 1-1 1-1M261 250s0 0-1 0c-1 0-1 1-1 1s1 0 1 0c0 0 1 1 1 1s0 0 1 0 0-1 0-1M261 250s0 0-1 0c-1 0-1 1-1 1s1 0 1 0c0 0 1 1 1 1s0 0 1 0 0-1 0-1zM260 253s-1 0-1 0c0 0-1 1-1 1s1 0 1 0c0 0 1 0 1 0s0 0 0-1c0 0 0-1 0-1M260 253s-1 0-1 0c0 0-1 1-1 1s1 0 1 0c0 0 1 0 1 0s0 0 0-1c0 0 0-1 0-1zM262 256s0 1 0 1c0 1 1 1 1 1s0 0 0-1c0 0 0-1 0-1s0 0-1 0c0 0-1 0-1 0M262 256s0 1 0 1c0 1 1 1 1 1s0 0 0-1c0 0 0-1 0-1s0 0-1 0c0 0-1 0-1 0zM278 257s2 1 2 2c0 1-1 2-1 2M269 263s0-1-1-1c-1 0-1 1-1 1s1 0 1 0c0 0 1 1 1 1s0 0 1 0c0 0 1-1 1-1M269 263s0-1-1-1c-1 0-1 1-1 1s1 0 1 0c0 0 1 1 1 1s0 0 1 0c0 0 1-1 1-1zM267 266s-1 0-1 0c0 1 0 1 0 1s1-1 1-1 1 0 1 0 0 0 0-1c0 0 0-1 0-1M267 266s-1 0-1 0c0 1 0 1 0 1s1-1 1-1 1 0 1 0 0 0 0-1c0 0 0-1 0-1zM269 269s0 1 0 1 1 1 1 1 0 0 0-1c0 0 1-1 1-1l-1 0M269 269s0 1 0 1 1 1 1 1 0 0 0-1c0 0 1-1 1-1l-1 0zM281 270s-1 0-1 0c0 0-1 1-1 1s1-1 1 0c1 0 1 0 1 0s0 0 0-1c0 0 0 0 0 0M281 270s-1 0-1 0c0 0-1 1-1 1s1-1 1 0c1 0 1 0 1 0s0 0 0-1c0 0 0 0 0 0zM282 273s-1 1 0 1c0 1 1 1 1 1s0-1 0-1c0 0 1 0 1 0s0 0-1 0c0 0-1 0-1 0M282 273s-1 1 0 1c0 1 1 1 1 1s0-1 0-1c0 0 1 0 1 0s0 0-1 0c0 0-1 0-1 0zM285 274s0 1 0 1c1 1 1 1 1 1s0-1 0-1c0 0 1-1 1-1s-1 0-1 0c0 0-1 0-1 0M285 274s0 1 0 1c1 1 1 1 1 1s0-1 0-1c0 0 1-1 1-1s-1 0-1 0c0 0-1 0-1 0z"/><path d="m253 330c2 1 3 2 3 4 0 2-2 4-5 4-3 0-5-2-5-4 0-2 1-4 3-4 0 0 0 0 0 0 0 0-1-1-1-1s1 0 1 0c1 0 1 1 1 1s0 0 1-1c0 0 1 0 1 0s1 0 1 1c0 0 0 1 0 1s0 0 1 0c0 0 1 0 1 0s0 1 0 1 0 1 0 1" style="fill:#ffd691;stroke-width:0.5;stroke:#000"/><path d="m250 340s-4-3-6-3c-2 0-5 0-6 0 0 0 1 1 2 2s2 2 3 2c3 1 6 0 6 0M252 341 252 341 252 341s3-3 5-3c3 0 5 0 6 1 0 0-1 1-2 1 0 0-2 2-4 2-2 0-5 0-5 0 0 0-1 0-1 0" class="y"/><path d="m251 337c-1-1-2-2-2-4 0-1 1-3 2-4 1 1 2 2 2 4 0 2-1 3-2 4" style="fill:#ad1519;stroke-width:0.5;stroke:#000"/><path d="m250 343s1-1 1-3c0-1 0-2 0-2h1 0s0 1 0 2c0 1 0 2 0 2s0 0-1 0c0 0-1 0-1 0M300 199 300 199 300 199c0-1 1-1 1-1 1 0 1 1 1 1 0 1 0 1-1 1-1 0-1 0-1-1M300 199c0-1 1-1 1-1 1 0 1 1 1 1 0 1 0 1-1 1-1 0-1 0-1-1zM302 196c0-1 1-1 1-1 1 0 1 1 1 1 0 1 0 1-1 1-1 0-1 0-1-1M302 196c0-1 1-1 1-1 1 0 1 1 1 1 0 1 0 1-1 1-1 0-1 0-1-1zM303 193c0-1 1-1 1-1 1 0 1 1 1 1 0 1 0 1-1 1-1 0-1 0-1-1M303 193c0-1 1-1 1-1 1 0 1 1 1 1 0 1 0 1-1 1-1 0-1 0-1-1zM303 190c0-1 1-1 1-1 1 0 1 1 1 1 0 1 0 1-1 1-1 0-1 0-1-1M303 190c0-1 1-1 1-1 1 0 1 1 1 1 0 1 0 1-1 1-1 0-1 0-1-1zM302 186c0-1 1-1 1-1 1 0 1 1 1 1 0 1 0 1-1 1-1 0-1 0-1-1M302 186c0-1 1-1 1-1 1 0 1 1 1 1 0 1 0 1-1 1-1 0-1 0-1-1zM300 184c0-1 1-1 1-1 1 0 1 1 1 1 0 1 0 1-1 1-1 0-1 0-1-1M300 184c0-1 1-1 1-1 1 0 1 1 1 1 0 1 0 1-1 1-1 0-1 0-1-1zM298 181c0-1 1-1 1-1 1 0 1 1 1 1 0 1 0 1-1 1-1 0-1 0-1-1M298 181c0-1 1-1 1-1 1 0 1 1 1 1 0 1 0 1-1 1-1 0-1 0-1-1zM295 179c0-1 1-1 1-1 1 0 1 1 1 1s0 1-1 1c-1 0-1 0-1-1M295 179c0-1 1-1 1-1 1 0 1 1 1 1s0 1-1 1c-1 0-1 0-1-1zM292 177c0-1 1-1 1-1 1 0 1 1 1 1 0 1 0 1-1 1-1 0-1 0-1-1M292 177c0-1 1-1 1-1 1 0 1 1 1 1 0 1 0 1-1 1-1 0-1 0-1-1zM289 176c0-1 1-1 1-1 1 0 1 1 1 1s0 1-1 1c-1 0-1 0-1-1M289 176c0-1 1-1 1-1 1 0 1 1 1 1s0 1-1 1c-1 0-1 0-1-1zM285 176c0-1 1-1 1-1 1 0 1 1 1 1s0 1-1 1c-1 0-1 0-1-1M285 176c0-1 1-1 1-1 1 0 1 1 1 1s0 1-1 1c-1 0-1 0-1-1zM282 175c0-1 1-1 1-1 1 0 1 1 1 1 0 1 0 1-1 1-1 0-1 0-1-1M282 175c0-1 1-1 1-1 1 0 1 1 1 1 0 1 0 1-1 1-1 0-1 0-1-1zM279 176c0-1 1-1 1-1 1 0 1 1 1 1s0 1-1 1c-1 0-1 0-1-1M279 176c0-1 1-1 1-1 1 0 1 1 1 1s0 1-1 1c-1 0-1 0-1-1zM275 176c0-1 1-1 1-1 1 0 1 1 1 1s0 1-1 1c-1 0-1 0-1-1M275 176c0-1 1-1 1-1 1 0 1 1 1 1s0 1-1 1c-1 0-1 0-1-1zM277 178c0-1 1-1 1-1 1 0 1 1 1 1s0 1-1 1c-1 0-1 0-1-1M278 182c0-1 1-1 1-1 1 0 1 1 1 1 0 1 0 1-1 1-1 0-1 0-1-1M278 185c0-1 1-1 1-1 1 0 1 1 1 1s0 1-1 1c-1 0-1 0-1-1M277 188c0-1 1-1 1-1 1 0 1 1 1 1 0 1 0 1-1 1-1 0-1 0-1-1M275 190c0-1 1-1 1-1 1 0 1 1 1 1 0 1 0 1-1 1-1 0-1 0-1-1M273 174c0-1 1-1 1-1 1 0 1 1 1 1s0 1-1 1c-1 0-1 0-1-1M273 174c0-1 1-1 1-1 1 0 1 1 1 1s0 1-1 1c-1 0-1 0-1-1zM270 172c0-1 1-1 1-1 1 0 1 1 1 1 0 1 0 1-1 1-1 0-1 0-1-1M270 172c0-1 1-1 1-1 1 0 1 1 1 1 0 1 0 1-1 1-1 0-1 0-1-1zM266 171c0-1 1-1 1-1 1 0 1 1 1 1 0 1 0 1-1 1-1 0-1 0-1-1M266 171c0-1 1-1 1-1 1 0 1 1 1 1 0 1 0 1-1 1-1 0-1 0-1-1zM263 170c0-1 1-1 1-1 1 0 1 1 1 1s0 1-1 1c-1 0-1 0-1-1M263 170c0-1 1-1 1-1 1 0 1 1 1 1s0 1-1 1c-1 0-1 0-1-1zM260 170c0-1 1-1 1-1 1 0 1 1 1 1 0 1 0 1-1 1-1 0-1 0-1-1M260 170c0-1 1-1 1-1 1 0 1 1 1 1 0 1 0 1-1 1-1 0-1 0-1-1zM256 171c0-1 1-1 1-1 1 0 1 1 1 1 0 1 0 1-1 1-1 0-1 0-1-1M256 171c0-1 1-1 1-1 1 0 1 1 1 1 0 1 0 1-1 1-1 0-1 0-1-1zM253 172c0-1 1-1 1-1 1 0 1 1 1 1s0 1-1 1c-1 0-1 0-1-1M253 172c0-1 1-1 1-1 1 0 1 1 1 1s0 1-1 1c-1 0-1 0-1-1zM198 199c0-1 1-1 1-1 1 0 1 1 1 1 0 1 0 1-1 1-1 0-1 0-1-1M198 199c0-1 1-1 1-1 1 0 1 1 1 1 0 1 0 1-1 1-1 0-1 0-1-1zM196 196c0-1 1-1 1-1 1 0 1 1 1 1 0 1 0 1-1 1-1 0-1 0-1-1M196 196c0-1 1-1 1-1 1 0 1 1 1 1 0 1 0 1-1 1-1 0-1 0-1-1zM195 193c0-1 1-1 1-1 1 0 1 1 1 1 0 1 0 1-1 1-1 0-1 0-1-1M195 193c0-1 1-1 1-1 1 0 1 1 1 1 0 1 0 1-1 1-1 0-1 0-1-1zM195 190c0-1 1-1 1-1 1 0 1 1 1 1 0 1 0 1-1 1-1 0-1 0-1-1M195 190c0-1 1-1 1-1 1 0 1 1 1 1 0 1 0 1-1 1-1 0-1 0-1-1zM196 186c0-1 1-1 1-1 1 0 1 1 1 1 0 1 0 1-1 1-1 0-1 0-1-1M196 186c0-1 1-1 1-1 1 0 1 1 1 1 0 1 0 1-1 1-1 0-1 0-1-1zM198 184c0-1 1-1 1-1 1 0 1 1 1 1 0 1 0 1-1 1-1 0-1 0-1-1M198 184c0-1 1-1 1-1 1 0 1 1 1 1 0 1 0 1-1 1-1 0-1 0-1-1zM200 181c0-1 1-1 1-1 1 0 1 1 1 1 0 1 0 1-1 1-1 0-1 0-1-1M200 181c0-1 1-1 1-1 1 0 1 1 1 1 0 1 0 1-1 1-1 0-1 0-1-1zM203 179c0-1 1-1 1-1 1 0 1 1 1 1s0 1-1 1c-1 0-1 0-1-1M203 179c0-1 1-1 1-1 1 0 1 1 1 1s0 1-1 1c-1 0-1 0-1-1zM206 177c0-1 1-1 1-1 1 0 1 1 1 1 0 1 0 1-1 1-1 0-1 0-1-1M206 177c0-1 1-1 1-1 1 0 1 1 1 1 0 1 0 1-1 1-1 0-1 0-1-1zM209 176c0-1 1-1 1-1 1 0 1 1 1 1s0 1-1 1c-1 0-1 0-1-1M209 176c0-1 1-1 1-1 1 0 1 1 1 1s0 1-1 1c-1 0-1 0-1-1zM213 176c0-1 1-1 1-1s1 1 1 1 0 1-1 1-1 0-1-1M213 176c0-1 1-1 1-1s1 1 1 1 0 1-1 1-1 0-1-1zM216 175c0-1 1-1 1-1 1 0 1 1 1 1 0 1 0 1-1 1-1 0-1 0-1-1M216 175c0-1 1-1 1-1 1 0 1 1 1 1 0 1 0 1-1 1-1 0-1 0-1-1zM219 176c0-1 1-1 1-1 1 0 1 1 1 1s0 1-1 1c-1 0-1 0-1-1M219 176c0-1 1-1 1-1 1 0 1 1 1 1s0 1-1 1c-1 0-1 0-1-1zM223 176c0-1 1-1 1-1 1 0 1 1 1 1s0 1-1 1c-1 0-1 0-1-1M223 176c0-1 1-1 1-1 1 0 1 1 1 1s0 1-1 1c-1 0-1 0-1-1zM221 178c0-1 1-1 1-1 1 0 1 1 1 1s0 1-1 1c-1 0-1 0-1-1M220 182c0-1 1-1 1-1s1 1 1 1c0 1 0 1-1 1s-1 0-1-1M220 185c0-1 1-1 1-1 1 0 1 1 1 1s0 1-1 1c-1 0-1 0-1-1M221 188c0-1 1-1 1-1 1 0 1 1 1 1 0 1 0 1-1 1-1 0-1 0-1-1M223 190c0-1 1-1 1-1 1 0 1 1 1 1 0 1 0 1-1 1-1 0-1 0-1-1M225 174c0-1 1-1 1-1 1 0 1 1 1 1s0 1-1 1c-1 0-1 0-1-1M225 174c0-1 1-1 1-1 1 0 1 1 1 1s0 1-1 1c-1 0-1 0-1-1zM228 172c0-1 1-1 1-1 1 0 1 1 1 1 0 1 0 1-1 1-1 0-1 0-1-1M228 172c0-1 1-1 1-1 1 0 1 1 1 1 0 1 0 1-1 1-1 0-1 0-1-1zM232 171c0-1 1-1 1-1 1 0 1 1 1 1 0 1 0 1-1 1-1 0-1 0-1-1M232 171c0-1 1-1 1-1 1 0 1 1 1 1 0 1 0 1-1 1-1 0-1 0-1-1zM235 170c0-1 1-1 1-1 1 0 1 1 1 1s0 1-1 1c-1 0-1 0-1-1M235 170c0-1 1-1 1-1 1 0 1 1 1 1s0 1-1 1c-1 0-1 0-1-1zM238 170c0-1 1-1 1-1 1 0 1 1 1 1 0 1 0 1-1 1-1 0-1 0-1-1M238 170c0-1 1-1 1-1 1 0 1 1 1 1 0 1 0 1-1 1-1 0-1 0-1-1zM242 171c0-1 1-1 1-1 1 0 1 1 1 1 0 1 0 1-1 1-1 0-1 0-1-1M242 171c0-1 1-1 1-1 1 0 1 1 1 1 0 1 0 1-1 1-1 0-1 0-1-1zM245 172c0-1 1-1 1-1s1 1 1 1 0 1-1 1-1 0-1-1M245 172c0-1 1-1 1-1s1 1 1 1 0 1-1 1-1 0-1-1zM217 238h-1v-1h-2v4h2v3h-3v7h2v15h-4v8h28v-8h-4v-15h2v-7h-3v-2h2v-4h-2v1h-1v-1h-2v1h-1v-1h-2v4h2v3h-3v-8h2v-4h-2v1h-1v-1h-2v1h-1v-1h-2v4h2v8h-3v-2h2v-4h-2v1h-1v-1h-2v1zm-6 35h28m-28-2h28m-28-2h28m-28-2h28m-28-2h28m-25-2h21m-21-2h21m-21-2h21m-21-2h21m-21-2h21m-21-2h21m-21-2h21m-23-2h25m-25-2h25m-25-2h25m-25-2h25m-21-2h18m-11-2h4m-3-2h4m-3-2h4m-3-2h4m-5-2h7m-12 8h4m-5-2h7m-7 34v-2m0-2v-2m-2 2v2m4 0v-2m2 4v-2m0-2v-2m0-2v-2m0-2v-2m-2 8v-2m-3 2v-2m7 0v2m2-2v-2m-5-2v2m4-2v2m4-2v2m-2-2v-2m2-2v2m0-5v2m-2-4v2m2-4v2m-3-2v2m-4-2v2m-2-4v2m4-2v2m4-2v2m2-4v2m-3-2v2m-4-2v2m-2-4v2m7-2v2m-3-5v2m16-2h-4m5-2h-7m7 34v-2m0-2v-2m2 2v2m-3 0v-2m-2 4v-2m0-2v-2m0-2v-2m0-2v-2m2 8v-2m4 2v-2m-7 0v2m-2-2v-2m5-2v2m-4-2v2m-3-2v2m2-2v-2m-2-2v2m0-5v2m2-4v2m-2-4v2m4-2v2m4-2v2m2-4v2m-3-2v2m-3-2v2m-2-4v2m4-2v2m4-2v2m2-4v2m-7-2v2m4-5v2m-7 19v-2m0-5v-2m0 6v-2m0-5v-2m0-2v-2m0-4v-2m0-2v-2m-9 5h4m4-5h4m4 6h4M230 274v-5c0-1 0-4-5-4-4 0-5 3-5 4v5h10zM222 269l-2 0c0-1 0-2 1-3l2 2c0 0-1 1-1 1zM228 269l2 0c0-1 0-2-1-3l-2 2c0 0 1 1 1 1zM226 267l1-2c0 0-1 0-2 0 0 0-1 0-2 1l1 2h2zM222 261v-5c0-1-1-2-2-2s-2 1-2 3v5h5zM229 261v-5c0-1 1-2 3-2 2 0 3 1 3 3v5h-5zM227 248l1-5h-4l0 5h4zM231 248l0-5h5l0 5h-4zM220 248l0-5h-4l1 5h4zM228 274v-4c0-1 0-3-3-3-2 0-3 2-3 3v4h6zM221 260v-4c0-1-1-2-2-2s-2 1-2 2v4h4zM229 260v-4c0-1 1-2 2-2 1 0 2 1 2 2v4h-4zM234 281c0-10 7-18 16-18s16 8 16 18c0 10-7 18-16 18s-16-8-16-18M234 281c0-10 7-18 16-18s16 8 16 18c0 10-7 18-16 18s-16-8-16-18zM239 281c0-7 5-13 11-13 6 0 11 6 11 13s-5 13-11 13c-6 0-11-6-11-13M239 281c0-7 5-13 11-13 6 0 11 6 11 13s-5 13-11 13c-6 0-11-6-11-13zM245 272s-1 2-1 3c0 1 1 3 1 3 0 0-1-1-1-1-1 0-1 1-1 1 0 0 0 1 0 1l1 1c0 0 1-1 1-1 1 0 1 1 1 1 0 0 0 0 0 0l-1 0v1h1l-1 2 1 0 1 1 1-1 1 0-1-2h1v-1l-1 0c0 0 0 0 0 0 0-1 1-1 1-1 0 0 1 0 1 1l1-1c0 0 0 0 0-1 0-1-1-1-1-1-1 0-1 0-1 1 0 0 1-1 1-2 0-1-1-3-1-3M245 272s-1 2-1 3c0 1 1 3 1 3 0 0-1-1-1-1-1 0-1 1-1 1 0 0 0 1 0 1l1 1c0 0 1-1 1-1 1 0 1 1 1 1 0 0 0 0 0 0l-1 0v1h1l-1 2 1 0 1 1 1-1 1 0-1-2h1v-1l-1 0c0 0 0 0 0 0 0-1 1-1 1-1 0 0 1 0 1 1l1-1c0 0 0 0 0-1 0-1-1-1-1-1-1 0-1 0-1 1 0 0 1-1 1-2 0-1-1-3-1-3zM243 281h4v-1h-4v1zM243 281h4v-1h-4v1zM256 272s-1 2-1 3c0 1 1 3 1 3 0 0-1-1-1-1-1 0-1 1-1 1 0 0 0 1 0 1l1 1c0 0 1-1 1-1 1 0 1 1 1 1 0 0 0 0 0 0l-1 0v1h1l-1 2 1 0 1 1 1-1 1 0-1-2h1v-1l-1 0c0 0 0 0 0 0 0-1 1-1 1-1 0 0 1 0 1 1l1-1c0 0 0 0 0-1 0-1-1-1-1-1-1 0-1 0-1 1 0 0 1-1 1-2 0-1-1-3-1-3M256 272s-1 2-1 3c0 1 1 3 1 3 0 0-1-1-1-1-1 0-1 1-1 1 0 0 0 1 0 1l1 1c0 0 1-1 1-1 1 0 1 1 1 1 0 0 0 0 0 0l-1 0v1h1l-1 2 1 0 1 1 1-1 1 0-1-2h1v-1l-1 0c0 0 0 0 0 0 0-1 1-1 1-1 0 0 1 0 1 1l1-1c0 0 0 0 0-1 0-1-1-1-1-1-1 0-1 0-1 1 0 0 1-1 1-2 0-1-1-3-1-3zM254 281h4v-1h-4v1zM254 281h4v-1h-4v1zM250 281s-1 2-1 3 1 3 1 3c0 0-1-1-1-1-1 0-1 1-1 1 0 0 0 1 0 1l1 1c0 0 1-1 1-1 1 0 1 1 1 1 0 0 0 0 0 0h-1v1h1l-1 2 1 0 1 1 1-1 1 0-1-2h1v-1h-1c0 0 0 0 0 0 0-1 1-1 1-1 0 0 1 0 1 1l1-1c0 0 0 0 0-1 0-1-1-1-1-1-1 0-1 0-1 1 0 0 1-1 1-2s-1-3-1-3M250 281s-1 2-1 3 1 3 1 3c0 0-1-1-1-1-1 0-1 1-1 1 0 0 0 1 0 1l1 1c0 0 1-1 1-1 1 0 1 1 1 1 0 0 0 0 0 0h-1v1h1l-1 2 1 0 1 1 1-1 1 0-1-2h1v-1h-1c0 0 0 0 0 0 0-1 1-1 1-1 0 0 1 0 1 1l1-1c0 0 0 0 0-1 0-1-1-1-1-1-1 0-1 0-1 1 0 0 1-1 1-2s-1-3-1-3h0zM248 290h4v-1h-4v1zM248 290h4v-1h-4v1zM283 233l0 0c0 0 0 0 0 0 0 0-1 0-1 0 0 0 0 0 0 0 0 0 0 0 0 0 0 0 0 0 0-1 0 0 0 0 0 0l0 0 0 0 0 0c0 0 0 0-1 0 0 0 0 0 0 0 0 0 0 0 0 0 0 0-1-1-1-1l0 0s0 1 0 1c0 1 0 1 0 1 1 0 2 1 3 2s2 2 2 2c0 0 1 0 1 0s1 0 1 0l0 0c0 0-2 0-2 0 0 0 0 0 0 0 0 0 0 0 0 0 0 0 0 0 0-1l0 0 0 0 0 0c0 0 0 0 0 0 0 0-1 0-1 0 0 0 0 0 0 0 0 0 0 0 0 0 0 0 0 0 0-1 0 0 0 0 0 0l0 0M283 233l0 0c0 0 0 0 0 0 0 0-1 0-1 0 0 0 0 0 0 0 0 0 0 0 0 0 0 0 0 0 0-1 0 0 0 0 0 0l0 0 0 0 0 0c0 0 0 0-1 0 0 0 0 0 0 0 0 0 0 0 0 0 0 0-1-1-1-1l0 0s0 1 0 1c0 1 0 1 0 1 1 0 2 1 3 2s2 2 2 2c0 0 1 0 1 0s1 0 1 0l0 0c0 0-2 0-2 0 0 0 0 0 0 0 0 0 0 0 0 0 0 0 0 0 0-1l0 0 0 0 0 0c0 0 0 0 0 0 0 0-1 0-1 0 0 0 0 0 0 0 0 0 0 0 0 0 0 0 0 0 0-1 0 0 0 0 0 0l0 0h0zM281 233c0 0 0 0 0 0s0 0 0 0c0 0 0 0 0 0 0 0 0 0 0 0M281 233c0 0 0 0 0 0s0 0 0 0c0 0 0 0 0 0 0 0 0 0 0 0zM282 234l0 0c0 0 0 0 0 0 0 0 0 0 0 0l0 0 0 0c0 0 0 0 0 0s0 0 0 0l0 0M282 234l0 0c0 0 0 0 0 0 0 0 0 0 0 0l0 0 0 0c0 0 0 0 0 0s0 0 0 0l0 0M280 233l0 0c0 0 0 0 0 0s0 0 0 0l0 0 0 0c0 0 0 0 0 0 0 0 0 0 0 0l0 0M280 233l0 0c0 0 0 0 0 0s0 0 0 0l0 0 0 0c0 0 0 0 0 0 0 0 0 0 0 0l0 0M279 232c0 0 0 0 0 0 0 0 0 0 0 0 0 0 0 0 0 0s0 0 0 0M279 232c0 0 0 0 0 0 0 0 0 0 0 0 0 0 0 0 0 0s0 0 0 0zM283 235c0 0 0 0 0 0 0 0 0 0 0 0 0 0 0 0 0 0s0 0 0 0M283 235c0 0 0 0 0 0 0 0 0 0 0 0 0 0 0 0 0 0s0 0 0 0zM283 236l0 0c0 0 0 0 0 0 0 0 0 0 0 0l0 0 0 0c0 0 0 0 0 0 0 0 0 0 0 0l0 0M283 236l0 0c0 0 0 0 0 0 0 0 0 0 0 0l0 0 0 0c0 0 0 0 0 0 0 0 0 0 0 0l0 0M284 236c0 0 0 0 0 0 0 0 0 0 0 0s0 0 0 0c0 0 0 0 0 0M284 236c0 0 0 0 0 0 0 0 0 0 0 0s0 0 0 0c0 0 0 0 0 0zM281 230l-1 0 0 1 0 0 0 0 1 0 0 0M281 230l-1 0 0 1 0 0 0 0 1 0 0 0M280 231l0 1 1 0 0 0 0 0 0-1 0 0M280 231l0 1 1 0 0 0 0 0 0-1 0 0M282 232l0 0 0-1 0 0 0 0 1 0 0 1M282 232l0 0 0-1 0 0 0 0 1 0 0 1M281 231c0 0 0 0 0 0 0 0 0 0 0 0s0 0 0 0c0 0 0 0 0 0M281 231c0 0 0 0 0 0 0 0 0 0 0 0s0 0 0 0c0 0 0 0 0 0zM278 230c0 0 0 0 0-1 0 0 0 0 0 0 0 0 0 0 1 0 0 0 0 1 0 1s0 0 0 0M278 230c0 0 0 0 0-1 0 0 0 0 0 0 0 0 0 0 1 0 0 0 0 1 0 1s0 0 0 0zM279 231l0 0-1-1 0 0 0 0 1 0 0 1M279 231l0 0-1-1 0 0 0 0 1 0 0 1M278 230c0 0 0 0 0 0 0 0 0 0 0 0s0 0 0 0c0 0 0 0 0 0M278 230c0 0 0 0 0 0 0 0 0 0 0 0s0 0 0 0c0 0 0 0 0 0zM284 232l-1 0 0 1 0 0 0 0 1 0 0 0M284 232l-1 0 0 1 0 0 0 0 1 0 0 0M282 232l0 1 1 0 0 0 0 0 0-1 0 0M282 232l0 1 1 0 0 0 0 0 0-1 0 0M284 233l0 0 0-1 0 0 0 0 1 0 0 1M284 233l0 0 0-1 0 0 0 0 1 0 0 1M283 233c0 0 0 0 0 0 0 0 0 0 0 0s0 0 0 0c0 0 0 0 0 0M283 233c0 0 0 0 0 0 0 0 0 0 0 0s0 0 0 0c0 0 0 0 0 0zM286 234l0 1-1 0 0 0 0 0 0-1 1 0M286 234l0 1-1 0 0 0 0 0 0-1 1 0M286 235l-1 0 0-1 0 0 0 0 1 0 0 1M286 235l-1 0 0-1 0 0 0 0 1 0 0 1M284 234l0 1 1 0 0 0 0 0 0-1-1 0M284 234l0 1 1 0 0 0 0 0 0-1-1 0M285 235c0 0 0 0 0 0 0 0 0 0 0 0 0 0 0 0 0 0 0 0 0 0 0 0M285 235c0 0 0 0 0 0 0 0 0 0 0 0 0 0 0 0 0 0 0 0 0 0 0 0zM286 236c0 0 1 0 1 0 0 0 1 0 1 0 0 0 0 0 0-1 0 0-1 0-1 0s0 0 0 0M286 236c0 0 1 0 1 0 0 0 1 0 1 0 0 0 0 0 0-1 0 0-1 0-1 0s0 0 0 0zM286 236l0 1 1 1 0 0 0 0 0-1-1 0M286 236l0 1 1 1 0 0 0 0 0-1-1 0M286 237c0 0 0 0 0 0s0 0 0 0 0 0 0 0c0 0 0 0 0 0M286 237c0 0 0 0 0 0s0 0 0 0 0 0 0 0c0 0 0 0 0 0zM326 214v1h-2v-1h1v-1h-1v-1h1v-1h1v1h1v1h-1v1h1M175 226v-1M175 226v-1M175 226v-1M174 226v-1M174 226v-1M174 226l0-1m0 1v-1M173 226v-1m0 1l0-1M172 226v-1m0 1v-1m0 1v-1M172 226v-1M172 226v-1M172 226v-1M171 226l0-1m0 1v-1M171 226v0M171 226v0M171 226v0M170 226v0M170 226v0M177 226v-1m-1 1l0-1m0 1v-1M325 226v-1M324 226v-1M324 226v-1M324 226v-1M324 226v-1M323 226l0-1m0 1v-1M322 226v-1m0 1l0-1M322 226v-1m0 1v-1m0 1v-1M322 226v-1M321 226v-1M321 226v-1M321 226l0-1m0 1v-1M320 226v0M320 226v0M320 226v0M320 226v0M319 226v0M326 226v-1m-1 1v-1m0 1v-1" class="y"/></svg>