<svg height="512pt" viewBox="-61 0 512 512" width="512pt" xmlns="http://www.w3.org/2000/svg"><path d="m180 438.601562h30v50.898438h-30zm0 0" fill="#465a61"/><path d="m195 438.601562h15v50.898438h-15zm0 0" fill="#3b4a51"/><path d="m195 0c-74.398438 0-135 60.597656-135 135v120c0 74.398438 60.601562 135 135 135s135-60.601562 135-135v-120c0-74.402344-60.601562-135-135-135zm0 0" fill="#c6e2e7"/><path d="m330 135v120c0 74.398438-60.601562 135-135 135v-390c74.398438 0 135 60.597656 135 135zm0 0" fill="#8ebac5"/><path d="m390 255c0 107.398438-87.597656 195-195 195s-195-87.601562-195-195c0-8.402344 6.597656-15 15-15s15 6.597656 15 15c0 90.898438 74.097656 165 165 165s165-74.101562 165-165c0-8.402344 6.597656-15 15-15s15 6.597656 15 15zm0 0" fill="#697c86"/><path d="m270 255c0 8.285156-6.714844 15-15 15s-15-6.714844-15-15 6.714844-15 15-15 15 6.714844 15 15zm0 0" fill="#3b4a51"/><path d="m270 195c0 8.285156-6.714844 15-15 15s-15-6.714844-15-15 6.714844-15 15-15 15 6.714844 15 15zm0 0" fill="#3b4a51"/><path d="m270 135c0 8.285156-6.714844 15-15 15s-15-6.714844-15-15 6.714844-15 15-15 15 6.714844 15 15zm0 0" fill="#3b4a51"/><g fill="#465a61"><path d="m210 75c0 8.398438-6.597656 15-15 15s-15-6.601562-15-15c0-8.402344 6.597656-15 15-15s15 6.597656 15 15zm0 0"/><path d="m210 315c0 8.398438-6.597656 15-15 15s-15-6.601562-15-15c0-8.402344 6.597656-15 15-15s15 6.597656 15 15zm0 0"/><path d="m210 255c0 8.398438-6.597656 15-15 15s-15-6.601562-15-15c0-8.402344 6.597656-15 15-15s15 6.597656 15 15zm0 0"/><path d="m210 195c0 8.398438-6.597656 15-15 15s-15-6.601562-15-15c0-8.402344 6.597656-15 15-15s15 6.597656 15 15zm0 0"/><path d="m210 135c0 8.398438-6.597656 15-15 15s-15-6.601562-15-15c0-8.402344 6.597656-15 15-15s15 6.597656 15 15zm0 0"/></g><path d="m195 330v-30c8.402344 0 15 6.597656 15 15 0 8.398438-6.597656 15-15 15zm0 0" fill="#3b4a51"/><path d="m195 270v-30c8.402344 0 15 6.597656 15 15 0 8.398438-6.597656 15-15 15zm0 0" fill="#3b4a51"/><path d="m195 210v-30c8.402344 0 15 6.597656 15 15 0 8.398438-6.597656 15-15 15zm0 0" fill="#3b4a51"/><path d="m195 150v-30c8.402344 0 15 6.597656 15 15 0 8.398438-6.597656 15-15 15zm0 0" fill="#3b4a51"/><path d="m195 90v-30c8.402344 0 15 6.597656 15 15 0 8.398438-6.597656 15-15 15zm0 0" fill="#3b4a51"/><path d="m390 255c0 107.398438-87.597656 195-195 195v-30c90.902344 0 165-74.101562 165-165 0-8.402344 6.597656-15 15-15s15 6.597656 15 15zm0 0" fill="#596c76"/><path d="m300 497c0 8.398438-6.597656 15-15 15h-180c-8.402344 0-15-6.601562-15-15 0-8.402344 6.597656-15 15-15h180c8.402344 0 15 6.597656 15 15zm0 0" fill="#697c86"/><path d="m300 497c0 8.398438-6.597656 15-15 15h-90v-30h90c8.402344 0 15 6.597656 15 15zm0 0" fill="#596c76"/></svg>