<?xml version="1.0" encoding="iso-8859-1"?>
<!-- Generator: Adobe Illustrator 19.0.0, SVG Export Plug-In . SVG Version: 6.00 Build 0)  -->
<svg version="1.1" id="Capa_1" xmlns="http://www.w3.org/2000/svg" xmlns:xlink="http://www.w3.org/1999/xlink" x="0px" y="0px"
	 viewBox="0 0 512 512" style="enable-background:new 0 0 512 512;" xml:space="preserve">
<g>
	<g>
		<path d="M336.835,326.045h-83.819c-4.144,0-7.502,3.359-7.502,7.502s3.359,7.502,7.502,7.502h83.819
			c4.144,0,7.502-3.359,7.502-7.502S340.978,326.045,336.835,326.045z"/>
	</g>
</g>
<g>
	<g>
		<path d="M218.107,326.045h-16.305c-4.144,0-7.502,3.359-7.502,7.502s3.358,7.502,7.502,7.502h16.305
			c4.144,0,7.502-3.359,7.502-7.502S222.25,326.045,218.107,326.045z"/>
	</g>
</g>
<g>
	<g>
		<path d="M336.835,403.891h-17.447c-4.144,0-7.502,3.359-7.502,7.502s3.358,7.502,7.502,7.502h17.447
			c4.144,0,7.502-3.359,7.502-7.502S340.978,403.891,336.835,403.891z"/>
	</g>
</g>
<g>
	<g>
		<path d="M284.48,403.891h-82.678c-4.144,0-7.502,3.359-7.502,7.502s3.358,7.502,7.502,7.502h82.678
			c4.144,0,7.502-3.359,7.502-7.502S288.624,403.891,284.48,403.891z"/>
	</g>
</g>
<g>
	<g>
		<path d="M336.836,364.997H201.803c-4.144,0-7.502,3.359-7.502,7.502s3.359,7.502,7.502,7.502h135.033
			c4.144,0,7.502-3.359,7.502-7.502S340.98,364.997,336.836,364.997z"/>
	</g>
</g>
<g>
	<g>
		<path d="M336.836,442.783H201.803c-4.144,0-7.502,3.359-7.502,7.502s3.359,7.502,7.502,7.502h135.033
			c4.144,0,7.502-3.359,7.502-7.502S340.98,442.783,336.836,442.783z"/>
	</g>
</g>
<g>
	<g>
		<path d="M360.42,126.21l-5.017-104.911C354.831,9.356,345.018,0,333.061,0c-11.957,0-21.771,9.356-22.342,21.299l-5.014,104.842
			h-69.923v-11.52c0-10.937-8.897-19.835-19.835-19.835h-19.896c-10.937,0-19.835,8.898-19.835,19.835v11.742
			c-17.913,1.807-32.64,14.534-37.433,31.399H127.94c-9.623,0-17.453,7.829-17.453,17.452v80.066c0,9.623,7.83,17.452,17.453,17.452
			h9.482c0.965,13.152,4.31,26.198,9.834,38.139c5.723,12.372,8.747,26.115,8.747,39.744v119.244
			c0,23.237,18.905,42.141,42.141,42.141h142.349c23.236,0,42.141-18.904,42.141-42.141V350.615c0-13.63,3.024-27.374,8.746-39.743
			c6.63-14.33,10.134-30.251,10.134-46.043v-95.195C401.514,146.456,383.29,127.459,360.42,126.21z M137.123,257.728h-9.183
			c-1.35,0-2.448-1.098-2.448-2.448v-80.066c0-1.35,1.098-2.448,2.448-2.448h9.183V257.728z M325.706,22.016
			c0.189-3.932,3.419-7.012,7.355-7.012c3.936,0,7.166,3.08,7.355,7.012l4.979,104.125h-24.669L325.706,22.016z M196.052,109.791
			h19.896c2.663,0,4.83,2.167,4.83,4.83v11.52h-29.555v-11.52h-0.001C191.222,111.958,193.389,109.791,196.052,109.791z
			 M386.51,264.829c0,13.631-3.024,27.374-8.747,39.744c-6.629,14.331-10.133,30.252-10.133,46.043V469.86
			c0,14.963-12.173,27.136-27.136,27.136H198.145c-14.963,0-27.136-12.173-27.136-27.136V350.615
			c0-15.789-3.504-31.711-10.134-46.043c-5.671-12.261-8.688-25.869-8.742-39.378c0-0.006,0.001-0.013,0.001-0.019l-0.006-0.347
			v-95.195c0-15.708,12.78-28.487,28.488-28.487h177.407c15.707,0,28.487,12.78,28.487,28.487V264.829z"/>
	</g>
</g>
<g>
	<g>
		<path d="M348.135,161.692H190.503c-9.116,0-16.534,7.417-16.534,16.534v77.973c0,9.117,7.417,16.534,16.534,16.534h157.632
			c9.116,0,16.534-7.417,16.534-16.534v-77.973C364.669,169.109,357.251,161.692,348.135,161.692z M349.664,256.199
			c0,0.843-0.686,1.529-1.529,1.529H190.503c-0.843,0-1.529-0.686-1.529-1.529v-77.973c0-0.843,0.686-1.529,1.529-1.529h157.632
			c0.843,0,1.529,0.686,1.529,1.529V256.199z"/>
	</g>
</g>
<g>
</g>
<g>
</g>
<g>
</g>
<g>
</g>
<g>
</g>
<g>
</g>
<g>
</g>
<g>
</g>
<g>
</g>
<g>
</g>
<g>
</g>
<g>
</g>
<g>
</g>
<g>
</g>
<g>
</g>
</svg>
