<?xml version="1.0" encoding="iso-8859-1"?>
<!-- Generator: Adobe Illustrator 19.0.0, SVG Export Plug-In . SVG Version: 6.00 Build 0)  -->
<svg version="1.1" id="Layer_1" xmlns="http://www.w3.org/2000/svg" xmlns:xlink="http://www.w3.org/1999/xlink" x="0px" y="0px"
	 viewBox="0 0 512.01 512.01" style="enable-background:new 0 0 512.01 512.01;" xml:space="preserve">
<g>
	<g>
		<path d="M256.005,119.477c-47.128,0-85.333,38.205-85.333,85.333c0,47.128,38.205,85.333,85.333,85.333
			s85.333-38.205,85.333-85.333C341.339,157.682,303.134,119.477,256.005,119.477z M256.005,273.077
			c-37.703,0-68.267-30.564-68.267-68.267s30.564-68.267,68.267-68.267s68.267,30.564,68.267,68.267
			S293.708,273.077,256.005,273.077z"/>
	</g>
</g>
<g>
	<g>
		<path d="M256.005,153.61c-28.277,0-51.2,22.923-51.2,51.2c0,28.277,22.923,51.2,51.2,51.2s51.2-22.923,51.2-51.2
			C307.205,176.533,284.282,153.61,256.005,153.61z M256.005,238.944c-18.851,0-34.133-15.282-34.133-34.133
			s15.282-34.133,34.133-34.133c18.851,0,34.133,15.282,34.133,34.133S274.857,238.944,256.005,238.944z"/>
	</g>
</g>
<g>
	<g>
		<path d="M422.918,323.082c65.426-91.86,43.997-219.366-47.863-284.792c-11.077-7.89-22.915-14.653-35.337-20.189l-6.912-3.243
			C296.084,0.07,255.869-3.783,217.008,3.765c-6.428,1.252-12.772,2.844-19.029,4.779c-6.258,1.934-12.516,4.039-18.773,6.315
			l-7.253,2.987C68.93,63.73,22.612,184.442,68.496,287.464c5.551,12.463,12.337,24.338,20.256,35.448
			C33.603,354.996-0.231,414.074,0.005,477.877c0,18.851,15.282,34.133,34.133,34.133h443.733c18.851,0,34.133-15.282,34.133-34.133
			C512.181,414.046,478.197,354.998,422.918,323.082z M198.747,26.208l6.997-2.133c2.987-0.853,5.973-1.536,9.045-2.219
			c3.072-0.683,5.205-1.195,7.765-1.707c2.56-0.512,5.717-0.853,8.533-1.195c2.816-0.341,5.547-0.768,8.533-1.024
			c2.987-0.256,6.571,0,9.813-0.427c3.243-0.427,8.533,0,13.397,0s6.571,0,9.813,0.427c3.243,0.427,5.547,0.683,8.533,1.024
			c2.987,0.341,5.717,0.768,8.533,1.28c2.816,0.512,5.205,1.109,7.765,1.621s6.059,1.365,9.045,2.219l6.997,2.133l4.949,1.707
			c-15.476,34.38-55.892,49.705-90.272,34.229c-15.208-6.846-27.384-19.021-34.229-34.229L198.747,26.208z M140.341,57.044
			c11.587-9.081,24.202-16.767,37.584-22.9c19.014,43.122,69.386,62.666,112.508,43.652c19.488-8.593,35.059-24.164,43.652-43.652
			c94.255,43.198,135.645,154.625,92.447,248.88c-6.133,13.383-13.82,25.997-22.9,37.584
			c-35.406,45.556-89.93,72.125-147.627,71.936c-3.641,0-7.253,0-10.837,0c-7.151-0.393-14.273-1.19-21.333-2.389
			c-3.527-0.626-6.997-1.308-10.411-2.048c-5.035-1.195-10.069-2.645-15.019-4.181c-35.762-11.435-67.174-33.527-90.027-63.317
			C44.424,239,58.734,120.999,140.341,57.044z M477.872,494.944H34.139c-9.426,0-17.067-7.641-17.067-17.067
			c-0.1-43.016,17.016-84.284,47.531-114.603c10.37-10.395,22.113-19.324,34.901-26.539l1.536,1.707l3.755,4.181l4.011,4.352
			l3.925,3.925l4.267,4.096l4.096,3.669l4.437,3.84l4.267,3.499l4.693,3.584l4.437,3.157l4.864,3.328l4.523,2.901l5.035,2.987
			l4.608,2.645l5.291,2.731l4.779,2.389l5.461,2.475l4.779,2.048l5.632,2.219l4.864,1.792l5.888,1.877l4.949,1.536l6.059,1.621
			l4.864,1.195l6.4,1.28l4.779,0.939l6.741,0.939l4.608,0.597l7.595,0.683h3.84c3.868,0,7.737,0,11.605,0c3.868,0,7.737,0,11.605,0
			h3.84l7.595-0.683l4.608-0.597l6.741-0.939l4.864-0.939l6.315-1.28l4.949-1.195l6.059-1.536l4.949-1.536l5.803-1.877l4.949-1.792
			l5.632-2.133l4.864-2.133l5.376-2.475l4.779-2.389l5.205-2.731l4.779-2.731l4.949-2.987l4.608-2.987l4.779-3.243l4.437-3.243
			l4.608-3.499l4.267-3.499l4.437-3.755l4.096-3.755l4.181-4.011l3.925-4.011l4.011-4.352l3.669-4.181l1.536-1.792
			c51.075,28.623,82.626,82.678,82.432,141.227C494.939,487.303,487.298,494.944,477.872,494.944z"/>
	</g>
</g>
<g>
</g>
<g>
</g>
<g>
</g>
<g>
</g>
<g>
</g>
<g>
</g>
<g>
</g>
<g>
</g>
<g>
</g>
<g>
</g>
<g>
</g>
<g>
</g>
<g>
</g>
<g>
</g>
<g>
</g>
</svg>
